<svg width="454" height="232" viewBox="0 0 454 232" fill="none" xmlns="http://www.w3.org/2000/svg">
<path d="M330.198 16H357.178C369.098 16 378.762 25.6634 378.762 37.5839V64.5638" stroke="#FAFAFB" strokeLinecap="round" stroke-dasharray="2.7 2.7"/>
<path d="M123.802 217L96.8221 217C84.9017 217 75.2382 207.337 75.2382 195.416L75.2382 168.436" stroke="#FAFAFB" strokeLinecap="round" stroke-dasharray="2.7 2.7"/>
<rect x="157.707" y="26.292" width="210.763" height="107.911" rx="11.2919" fill="#7857ED"/>
<path d="M179.246 55.7989C180.897 55.7989 181.871 54.9689 181.871 53.6877C181.871 52.7314 181.312 51.8923 179.724 51.8923H178.921C178.154 51.8923 177.875 51.5585 177.875 51.1074C177.875 50.5029 178.371 50.142 179.201 50.142C180.076 50.142 180.527 50.5571 180.563 51.3871H181.781C181.745 50.0518 180.915 49.1767 179.21 49.1767C177.586 49.1767 176.648 49.9706 176.648 51.1706C176.648 52.181 177.306 52.8938 178.705 52.8938H179.508C180.356 52.8938 180.626 53.2727 180.626 53.7509C180.626 54.4185 180.112 54.8335 179.264 54.8335C178.362 54.8335 177.839 54.3644 177.803 53.4622H176.557C176.603 54.9057 177.532 55.7989 179.246 55.7989ZM184.931 55.7989C186.158 55.7989 187.024 55.1132 187.24 54.1208H186.068C185.914 54.5989 185.499 54.8967 184.949 54.8967C184.191 54.8967 183.713 54.3373 183.677 53.4892H187.304V52.975C187.304 51.3781 186.284 50.53 184.922 50.53C183.487 50.53 182.468 51.5134 182.468 53.1644C182.468 54.8065 183.46 55.7989 184.931 55.7989ZM183.686 52.6682C183.758 51.9735 184.164 51.4322 184.949 51.4322C185.725 51.4322 186.158 51.9465 186.158 52.6682H183.686ZM188.079 55.6455H189.216V52.8036C189.216 51.8111 189.775 51.4412 190.343 51.4412C190.903 51.4412 191.282 51.8021 191.282 52.6682V55.6455H192.418V52.5329C192.418 51.2157 191.751 50.53 190.74 50.53C190.055 50.53 189.513 50.8548 189.216 51.4412H189.198V50.6834H188.079V55.6455ZM193.392 55.6455H194.528V50.6834H193.392V55.6455ZM193.374 49.8985H194.537V48.7978H193.374V49.8985ZM197.831 55.7989C199.229 55.7989 200.348 54.8606 200.348 53.1644C200.348 51.4683 199.229 50.53 197.831 50.53C196.432 50.53 195.314 51.4683 195.314 53.1644C195.314 54.8606 196.432 55.7989 197.831 55.7989ZM196.532 53.1644C196.532 52.0186 197.046 51.4322 197.831 51.4322C198.616 51.4322 199.13 52.0186 199.13 53.1644C199.13 54.3102 198.616 54.8967 197.831 54.8967C197.046 54.8967 196.532 54.3102 196.532 53.1644ZM201.136 55.6455H202.273V52.7945C202.273 51.9825 202.589 51.6126 203.274 51.6126H203.96V50.6834H203.482C202.823 50.6834 202.508 50.9721 202.273 51.4683H202.255V50.6834H201.136V55.6455ZM206.538 55.6455H207.728V53.2637H209.379C210.643 53.2637 211.554 52.56 211.554 51.3059C211.554 50.0608 210.643 49.3301 209.379 49.3301H206.538V55.6455ZM207.728 52.2983V50.2954H209.127C209.867 50.2954 210.327 50.6924 210.327 51.3059C210.327 51.9194 209.867 52.2983 209.127 52.2983H207.728ZM212.282 55.6455H213.418V52.7945C213.418 51.9825 213.734 51.6126 214.42 51.6126H215.106V50.6834H214.627C213.969 50.6834 213.653 50.9721 213.418 51.4683H213.4V50.6834H212.282V55.6455ZM217.778 55.7989C219.176 55.7989 220.295 54.8606 220.295 53.1644C220.295 51.4683 219.176 50.53 217.778 50.53C216.38 50.53 215.261 51.4683 215.261 53.1644C215.261 54.8606 216.38 55.7989 217.778 55.7989ZM216.479 53.1644C216.479 52.0186 216.993 51.4322 217.778 51.4322C218.563 51.4322 219.077 52.0186 219.077 53.1644C219.077 54.3102 218.563 54.8967 217.778 54.8967C216.993 54.8967 216.479 54.3102 216.479 53.1644ZM223.066 55.7989C223.824 55.7989 224.428 55.4109 224.726 54.7794H224.744C224.735 54.9689 224.735 55.1312 224.735 55.3117V55.6455H225.863V48.5993H224.726V51.0443C224.726 51.2247 224.726 51.3781 224.744 51.5495H224.726C224.428 50.9179 223.824 50.53 223.066 50.53C221.911 50.53 220.856 51.4412 220.856 53.1644C220.856 54.8877 221.911 55.7989 223.066 55.7989ZM222.074 53.1644C222.074 52.1179 222.57 51.4322 223.409 51.4322C224.239 51.4322 224.735 52.1179 224.735 53.1644C224.735 54.211 224.239 54.8967 223.409 54.8967C222.57 54.8967 222.074 54.211 222.074 53.1644ZM228.514 55.7989C229.173 55.7989 229.714 55.5012 230.012 54.8877H230.03V55.6455H231.149V50.6834H230.012V53.5253C230.012 54.5177 229.471 54.8877 228.893 54.8877C228.334 54.8877 227.955 54.5448 227.955 53.6607V50.6834H226.818V53.796C226.818 55.1132 227.486 55.7989 228.514 55.7989ZM234.439 55.7989C235.819 55.7989 236.622 54.9147 236.767 53.8501H235.594C235.531 54.3193 235.17 54.8967 234.439 54.8967C233.654 54.8967 233.14 54.2381 233.14 53.1644C233.14 52.154 233.582 51.4322 234.439 51.4322C235.188 51.4322 235.549 51.9645 235.594 52.578H236.767C236.658 51.4142 235.864 50.53 234.439 50.53C232.86 50.53 231.922 51.5675 231.922 53.1644C231.922 54.7613 232.932 55.7989 234.439 55.7989ZM239.321 55.6455H240.639V54.7162H239.709C239.33 54.7162 239.114 54.5538 239.114 54.1298V51.6126H240.611V50.6834H239.114V49.3301H237.968V50.6834H237.012V51.6126H237.968V54.3012C237.968 55.2034 238.437 55.6455 239.321 55.6455ZM243.269 55.6455H245.732C247.5 55.6455 248.818 54.5087 248.818 52.4878C248.818 50.4668 247.5 49.3301 245.732 49.3301H243.269V55.6455ZM244.46 54.6801V50.2954H245.624C246.788 50.2954 247.554 51.0262 247.554 52.4878C247.554 53.9403 246.788 54.6801 245.624 54.6801H244.46ZM251.847 55.7989C253.074 55.7989 253.94 55.1132 254.157 54.1208H252.984C252.831 54.5989 252.416 54.8967 251.865 54.8967C251.108 54.8967 250.629 54.3373 250.593 53.4892H254.22V52.975C254.22 51.3781 253.201 50.53 251.838 50.53C250.404 50.53 249.384 51.5134 249.384 53.1644C249.384 54.8065 250.377 55.7989 251.847 55.7989ZM250.602 52.6682C250.674 51.9735 251.08 51.4322 251.865 51.4322C252.641 51.4322 253.074 51.9465 253.074 52.6682H250.602ZM256.917 55.7989C258.297 55.7989 259.073 55.1042 259.073 54.1208C259.073 53.3088 258.532 52.6412 257.341 52.6412H256.745C256.285 52.6412 256.006 52.4607 256.006 52.0908C256.006 51.6848 256.339 51.4322 256.881 51.4322C257.485 51.4322 257.792 51.7299 257.819 52.2893H258.983C258.947 51.2337 258.216 50.53 256.881 50.53C255.581 50.53 254.815 51.1886 254.815 52.1359C254.815 52.975 255.419 53.5434 256.457 53.5434H256.998C257.611 53.5434 257.855 53.7779 257.855 54.1659C257.855 54.608 257.521 54.8967 256.908 54.8967C256.321 54.8967 255.924 54.626 255.897 54.0035H254.724C254.76 55.0952 255.527 55.7989 256.917 55.7989ZM259.85 55.6455H260.987V50.6834H259.85V55.6455ZM259.832 49.8985H260.996V48.7978H259.832V49.8985ZM264.316 57.6123C265.931 57.6123 266.788 56.665 266.788 55.1944V50.6834H265.643V51.0443C265.643 51.2247 265.643 51.3781 265.661 51.5495H265.643C265.345 50.9179 264.74 50.53 263.982 50.53C262.828 50.53 261.772 51.4412 261.772 53.1644C261.772 54.8877 262.828 55.7989 263.982 55.7989C264.74 55.7989 265.345 55.4109 265.643 54.7794H265.661C265.643 54.9689 265.643 55.0771 265.643 55.2485V55.2666C265.643 56.2319 265.065 56.7101 264.334 56.7101C263.82 56.7101 263.45 56.4755 263.351 56.1959H262.142C262.232 56.9176 262.954 57.6123 264.316 57.6123ZM262.99 53.1644C262.99 52.1179 263.486 51.4322 264.325 51.4322C265.155 51.4322 265.652 52.1179 265.652 53.1644C265.652 54.211 265.155 54.8967 264.325 54.8967C263.486 54.8967 262.99 54.211 262.99 53.1644ZM267.894 55.6455H269.031V52.8036C269.031 51.8111 269.59 51.4412 270.159 51.4412C270.718 51.4412 271.097 51.8021 271.097 52.6682V55.6455H272.234V52.5329C272.234 51.2157 271.566 50.53 270.556 50.53C269.87 50.53 269.329 50.8548 269.031 51.4412H269.013V50.6834H267.894V55.6455ZM275.469 55.7989C276.696 55.7989 277.562 55.1132 277.778 54.1208H276.605C276.452 54.5989 276.037 54.8967 275.487 54.8967C274.729 54.8967 274.251 54.3373 274.215 53.4892H277.841V52.975C277.841 51.3781 276.822 50.53 275.46 50.53C274.025 50.53 273.006 51.5134 273.006 53.1644C273.006 54.8065 273.998 55.7989 275.469 55.7989ZM274.224 52.6682C274.296 51.9735 274.702 51.4322 275.487 51.4322C276.263 51.4322 276.696 51.9465 276.696 52.6682H274.224ZM278.617 55.6455H279.754V52.7945C279.754 51.9825 280.069 51.6126 280.755 51.6126H281.441V50.6834H280.962C280.304 50.6834 279.988 50.9721 279.754 51.4683H279.735V50.6834H278.617V55.6455Z" fill="#ECECFF"/>
<rect x="316.223" y="46.6455" width="33.7024" height="13.3512" rx="6.6756" fill="#FAFAFB"/>
<path d="M323.671 55.3213H324.719L325.047 54.3693H326.681L327.003 55.3213H328.077L326.379 50.8187H325.369L323.671 55.3213ZM325.311 53.591L325.452 53.1793C325.652 52.5876 325.774 52.1695 325.858 51.8414H325.864C325.948 52.1695 326.07 52.5876 326.256 53.1343L326.411 53.591H325.311ZM328.457 56.6077H329.415V55.1669C329.415 55.0318 329.415 54.9161 329.402 54.7874H329.415C329.621 55.1926 330.013 55.4371 330.515 55.4371C331.332 55.4371 332.039 54.7874 332.039 53.5524C332.039 52.3174 331.332 51.6677 330.515 51.6677C330.013 51.6677 329.621 51.9122 329.415 52.3174H329.402C329.415 52.1952 329.415 52.0923 329.415 51.9765V51.7835H328.457V56.6077ZM329.409 53.5524C329.409 52.8449 329.685 52.3946 330.213 52.3946C330.734 52.3946 331.017 52.8449 331.017 53.5524C331.017 54.26 330.734 54.7102 330.213 54.7102C329.685 54.7102 329.409 54.26 329.409 53.5524ZM332.527 56.6077H333.486V55.1669C333.486 55.0318 333.486 54.9161 333.473 54.7874H333.486C333.691 55.1926 334.084 55.4371 334.585 55.4371C335.402 55.4371 336.11 54.7874 336.11 53.5524C336.11 52.3174 335.402 51.6677 334.585 51.6677C334.084 51.6677 333.691 51.9122 333.486 52.3174H333.473C333.486 52.1952 333.486 52.0923 333.486 51.9765V51.7835H332.527V56.6077ZM333.479 53.5524C333.479 52.8449 333.756 52.3946 334.283 52.3946C334.804 52.3946 335.087 52.8449 335.087 53.5524C335.087 54.26 334.804 54.7102 334.283 54.7102C333.756 54.7102 333.479 54.26 333.479 53.5524ZM336.598 55.3213H337.556V50.2977H336.598V55.3213ZM337.872 56.6077H339.339C339.532 56.6077 339.667 56.5177 339.737 56.3376L341.571 51.7835H340.548L339.737 53.9383H339.725L338.908 51.7835H337.872L339.223 55.1283L338.908 55.8552H337.872V56.6077Z" fill="#7857ED"/>
<path d="M176.806 67.9966H177.478V65.9107H178.38C179.253 65.9107 179.52 66.1489 179.78 67.116L180.018 67.9966H180.711L180.423 66.95C180.249 66.3149 180.026 65.8529 179.419 65.6148V65.6003C180.148 65.456 180.56 64.9796 180.56 64.33C180.56 63.5072 179.903 62.9442 178.748 62.9442H176.806V67.9966ZM177.478 65.3188V63.5433H178.741C179.463 63.5433 179.86 63.8536 179.86 64.3878C179.86 64.994 179.354 65.3188 178.416 65.3188H177.478ZM183.012 68.1048C183.957 68.1048 184.679 67.5563 184.845 66.7768H184.145C183.986 67.2459 183.56 67.5419 183.012 67.5419C182.254 67.5419 181.799 66.9717 181.749 66.2283H184.881V65.8024C184.881 64.6259 184.065 63.9186 182.997 63.9186C181.857 63.9186 181.063 64.7342 181.063 66.0117C181.063 67.2748 181.842 68.1048 183.012 68.1048ZM181.763 65.6725C181.85 65.0013 182.254 64.4816 183.019 64.4816C183.755 64.4816 184.203 64.9652 184.203 65.6725H181.763ZM185.61 67.9966H186.259V65.7519C186.259 64.9291 186.728 64.496 187.277 64.496C187.753 64.496 188.093 64.8136 188.093 65.5498V67.9966H188.742V65.7447C188.742 64.9219 189.211 64.496 189.76 64.496C190.236 64.496 190.575 64.8136 190.575 65.5498V67.9966H191.225V65.4848C191.225 64.5321 190.741 63.9186 189.933 63.9186C189.291 63.9186 188.872 64.3011 188.67 64.8352H188.656C188.49 64.2651 188.064 63.9186 187.472 63.9186C186.83 63.9186 186.447 64.33 186.259 64.727H186.245V64.0269H185.61V67.9966ZM193.937 68.1048C195.034 68.1048 195.908 67.347 195.908 66.0117C195.908 64.6765 195.034 63.9186 193.937 63.9186C192.84 63.9186 191.967 64.6765 191.967 66.0117C191.967 67.347 192.84 68.1048 193.937 68.1048ZM192.645 66.0117C192.645 65.0013 193.216 64.4816 193.937 64.4816C194.659 64.4816 195.229 65.0013 195.229 66.0117C195.229 67.0222 194.659 67.5419 193.937 67.5419C193.216 67.5419 192.645 67.0222 192.645 66.0117ZM197.957 67.9966H198.845V67.4192H198.03C197.726 67.4192 197.553 67.2893 197.553 66.95V64.6043H198.809V64.0269H197.553V62.9442H196.904V64.0269H196.11V64.6043H196.904V66.95C196.904 67.6501 197.265 67.9966 197.957 67.9966ZM201.013 68.1048C201.959 68.1048 202.681 67.5563 202.847 66.7768H202.147C201.988 67.2459 201.562 67.5419 201.013 67.5419C200.256 67.5419 199.801 66.9717 199.75 66.2283H202.883V65.8024C202.883 64.6259 202.067 63.9186 200.999 63.9186C199.859 63.9186 199.065 64.7342 199.065 66.0117C199.065 67.2748 199.844 68.1048 201.013 68.1048ZM199.765 65.6725C199.851 65.0013 200.256 64.4816 201.021 64.4816C201.757 64.4816 202.204 64.9652 202.204 65.6725H199.765Z" fill="#ECECFF"/>
<rect opacity="0.2" x="176.251" y="82.8232" width="173.675" height="6.74497" rx="3.37248" fill="#ECECFF"/>
<rect opacity="0.2" x="176.251" y="94.9644" width="173.675" height="6.74497" rx="3.37248" fill="#ECECFF"/>
<rect opacity="0.2" x="176.251" y="107.105" width="126.309" height="6.74497" rx="3.37248" fill="#ECECFF"/>
<rect x="157.707" y="26.292" width="210.763" height="107.911" rx="11.2919" stroke="#FAFAFB"/>
<rect x="121.618" y="62.3804" width="210.763" height="107.911" rx="11.2919" fill="#BBED55"/>
<path d="M142.346 91.7339H143.537V86.3838H145.594V85.4184H140.28V86.3838H142.346V91.7339ZM148.364 90.8046H148.382V90.9941C148.382 91.4632 148.68 91.7339 149.221 91.7339H149.997V90.8046H149.808C149.564 90.8046 149.474 90.7144 149.474 90.4708V88.3416C149.474 87.3401 148.878 86.6184 147.372 86.6184C145.883 86.6184 145.188 87.3131 145.116 88.3777H146.307C146.343 87.8273 146.749 87.5206 147.39 87.5206C147.922 87.5206 148.337 87.7371 148.337 88.1882C148.337 88.5311 148.111 88.7295 147.615 88.7295H146.812C145.829 88.7295 144.927 89.1626 144.927 90.2994C144.927 91.3369 145.676 91.8873 146.641 91.8873C147.408 91.8873 148.048 91.5444 148.364 90.8046ZM146.145 90.2543C146.145 89.8663 146.397 89.5686 146.993 89.5505L147.363 89.5325C147.877 89.5145 148.166 89.3611 148.319 89.0543H148.337V89.5145C148.337 90.543 147.669 90.967 146.993 90.967C146.397 90.967 146.145 90.6422 146.145 90.2543ZM150.66 91.7339H151.797V84.6877H150.66V91.7339ZM155.045 91.8873C156.272 91.8873 157.138 91.2016 157.355 90.2092H156.182C156.029 90.6873 155.614 90.9851 155.063 90.9851C154.305 90.9851 153.827 90.4257 153.791 89.5776H157.418V89.0634C157.418 87.4664 156.399 86.6184 155.036 86.6184C153.602 86.6184 152.582 87.6018 152.582 89.2528C152.582 90.8948 153.575 91.8873 155.045 91.8873ZM153.8 88.7566C153.872 88.0619 154.278 87.5206 155.063 87.5206C155.839 87.5206 156.272 88.0348 156.272 88.7566H153.8ZM158.193 91.7339H159.33V88.8919C159.33 87.8995 159.89 87.5296 160.458 87.5296C161.017 87.5296 161.396 87.8905 161.396 88.7566V91.7339H162.533V88.6213C162.533 87.3041 161.865 86.6184 160.855 86.6184C160.169 86.6184 159.628 86.9432 159.33 87.5296H159.312V86.7717H158.193V91.7339ZM165.295 91.7339H166.612V90.8046H165.683C165.304 90.8046 165.087 90.6422 165.087 90.2182V87.701H166.585V86.7717H165.087V85.4184H163.941V86.7717H162.985V87.701H163.941V90.3896C163.941 91.2918 164.411 91.7339 165.295 91.7339ZM169.242 91.7339H170.433V89.0363H173.131V91.7339H174.322V85.4184H173.131V88.0709H170.433V85.4184H169.242V91.7339ZM177.655 91.8873C179.053 91.8873 180.172 90.949 180.172 89.2528C180.172 87.5567 179.053 86.6184 177.655 86.6184C176.256 86.6184 175.137 87.5567 175.137 89.2528C175.137 90.949 176.256 91.8873 177.655 91.8873ZM176.355 89.2528C176.355 88.107 176.87 87.5206 177.655 87.5206C178.439 87.5206 178.954 88.107 178.954 89.2528C178.954 90.3986 178.439 90.9851 177.655 90.9851C176.87 90.9851 176.355 90.3986 176.355 89.2528ZM182.638 91.8873C183.296 91.8873 183.837 91.5895 184.135 90.976H184.153V91.7339H185.272V86.7717H184.135V89.6137C184.135 90.6061 183.594 90.976 183.016 90.976C182.457 90.976 182.078 90.6332 182.078 89.749V86.7717H180.941V89.8844C180.941 91.2016 181.609 91.8873 182.638 91.8873ZM188.212 91.8873C189.592 91.8873 190.368 91.1926 190.368 90.2092C190.368 89.3972 189.827 88.7295 188.636 88.7295H188.04C187.58 88.7295 187.301 88.5491 187.301 88.1792C187.301 87.7732 187.634 87.5206 188.176 87.5206C188.78 87.5206 189.087 87.8183 189.114 88.3777H190.278C190.242 87.3221 189.511 86.6184 188.176 86.6184C186.876 86.6184 186.11 87.277 186.11 88.2243C186.11 89.0634 186.714 89.6317 187.752 89.6317H188.293C188.906 89.6317 189.15 89.8663 189.15 90.2543C189.15 90.6963 188.816 90.9851 188.203 90.9851C187.616 90.9851 187.219 90.7144 187.192 90.0919H186.019C186.055 91.1835 186.822 91.8873 188.212 91.8873ZM193.336 91.8873C194.563 91.8873 195.429 91.2016 195.646 90.2092H194.473C194.32 90.6873 193.905 90.9851 193.354 90.9851C192.596 90.9851 192.118 90.4257 192.082 89.5776H195.709V89.0634C195.709 87.4664 194.69 86.6184 193.327 86.6184C191.893 86.6184 190.873 87.6018 190.873 89.2528C190.873 90.8948 191.866 91.8873 193.336 91.8873ZM192.091 88.7566C192.163 88.0619 192.569 87.5206 193.354 87.5206C194.13 87.5206 194.563 88.0348 194.563 88.7566H192.091Z" fill="#252F11"/>
<rect x="280.135" y="82.7339" width="33.7024" height="13.3512" rx="6.6756" fill="#252F11"/>
<path d="M287.583 91.4097H288.631L288.959 90.4577H290.593L290.914 91.4097H291.989L290.291 86.9071H289.281L287.583 91.4097ZM289.223 89.6794L289.364 89.2677C289.564 88.6759 289.686 88.2578 289.77 87.9298H289.776C289.86 88.2578 289.982 88.6759 290.168 89.2227L290.323 89.6794H289.223ZM292.369 92.6961H293.327V91.2553C293.327 91.1202 293.327 91.0044 293.314 90.8758H293.327C293.533 91.281 293.925 91.5254 294.427 91.5254C295.244 91.5254 295.951 90.8758 295.951 89.6408C295.951 88.4058 295.244 87.7561 294.427 87.7561C293.925 87.7561 293.533 88.0006 293.327 88.4058H293.314C293.327 88.2836 293.327 88.1807 293.327 88.0649V87.8719H292.369V92.6961ZM293.321 89.6408C293.321 88.9332 293.597 88.483 294.125 88.483C294.646 88.483 294.929 88.9332 294.929 89.6408C294.929 90.3483 294.646 90.7986 294.125 90.7986C293.597 90.7986 293.321 90.3483 293.321 89.6408ZM296.439 92.6961H297.397V91.2553C297.397 91.1202 297.397 91.0044 297.385 90.8758H297.397C297.603 91.281 297.996 91.5254 298.497 91.5254C299.314 91.5254 300.022 90.8758 300.022 89.6408C300.022 88.4058 299.314 87.7561 298.497 87.7561C297.996 87.7561 297.603 88.0006 297.397 88.4058H297.385C297.397 88.2836 297.397 88.1807 297.397 88.0649V87.8719H296.439V92.6961ZM297.391 89.6408C297.391 88.9332 297.668 88.483 298.195 88.483C298.716 88.483 298.999 88.9332 298.999 89.6408C298.999 90.3483 298.716 90.7986 298.195 90.7986C297.668 90.7986 297.391 90.3483 297.391 89.6408ZM300.509 91.4097H301.468V86.386H300.509V91.4097ZM301.784 92.6961H303.25C303.443 92.6961 303.579 92.6061 303.649 92.426L305.482 87.8719H304.46L303.649 90.0267H303.636L302.82 87.8719H301.784L303.135 91.2167L302.82 91.9435H301.784V92.6961Z" fill="#BBED55"/>
<path d="M140.718 104.085H141.39V101.999H142.292C143.165 101.999 143.432 102.237 143.692 103.204L143.93 104.085H144.623L144.334 103.038C144.161 102.403 143.937 101.941 143.331 101.703V101.689C144.06 101.544 144.472 101.068 144.472 100.418C144.472 99.5956 143.815 99.0326 142.66 99.0326H140.718V104.085ZM141.39 101.407V99.6317H142.653C143.374 99.6317 143.771 99.942 143.771 100.476C143.771 101.082 143.266 101.407 142.328 101.407H141.39ZM146.924 104.193C147.869 104.193 148.591 103.645 148.757 102.865H148.057C147.898 103.334 147.472 103.63 146.924 103.63C146.166 103.63 145.711 103.06 145.66 102.317H148.793V101.891C148.793 100.714 147.977 100.007 146.909 100.007C145.769 100.007 144.975 100.823 144.975 102.1C144.975 103.363 145.754 104.193 146.924 104.193ZM145.675 101.761C145.761 101.09 146.166 100.57 146.931 100.57C147.667 100.57 148.114 101.054 148.114 101.761H145.675ZM149.522 104.085H150.171V101.84C150.171 101.017 150.64 100.584 151.189 100.584C151.665 100.584 152.004 100.902 152.004 101.638V104.085H152.654V101.833C152.654 101.01 153.123 100.584 153.672 100.584C154.148 100.584 154.487 100.902 154.487 101.638V104.085H155.137V101.573C155.137 100.62 154.653 100.007 153.845 100.007C153.203 100.007 152.784 100.39 152.582 100.924H152.567C152.401 100.353 151.976 100.007 151.384 100.007C150.741 100.007 150.359 100.418 150.171 100.815H150.157V100.115H149.522V104.085ZM157.849 104.193C158.946 104.193 159.82 103.435 159.82 102.1C159.82 100.765 158.946 100.007 157.849 100.007C156.752 100.007 155.879 100.765 155.879 102.1C155.879 103.435 156.752 104.193 157.849 104.193ZM156.557 102.1C156.557 101.09 157.127 100.57 157.849 100.57C158.571 100.57 159.141 101.09 159.141 102.1C159.141 103.111 158.571 103.63 157.849 103.63C157.127 103.63 156.557 103.111 156.557 102.1ZM161.869 104.085H162.757V103.508H161.941C161.638 103.508 161.465 103.378 161.465 103.038V100.693H162.721V100.115H161.465V99.0326H160.816V100.115H160.022V100.693H160.816V103.038C160.816 103.739 161.176 104.085 161.869 104.085ZM164.925 104.193C165.871 104.193 166.593 103.645 166.759 102.865H166.059C165.9 103.334 165.474 103.63 164.925 103.63C164.167 103.63 163.713 103.06 163.662 102.317H166.795V101.891C166.795 100.714 165.979 100.007 164.911 100.007C163.771 100.007 162.977 100.823 162.977 102.1C162.977 103.363 163.756 104.193 164.925 104.193ZM163.677 101.761C163.763 101.09 164.167 100.57 164.933 100.57C165.669 100.57 166.116 101.054 166.116 101.761H163.677Z" fill="#ECECFF"/>
<rect opacity="0.2" x="140.163" y="118.912" width="173.675" height="6.74497" rx="3.37248" fill="#ECECFF"/>
<rect opacity="0.2" x="140.163" y="131.053" width="173.675" height="6.74497" rx="3.37248" fill="#ECECFF"/>
<rect opacity="0.2" x="140.163" y="143.193" width="126.309" height="6.74497" rx="3.37248" fill="#ECECFF"/>
<rect x="121.618" y="62.3804" width="210.763" height="107.911" rx="11.2919" stroke="#7857ED"/>
<rect x="85.5303" y="98.4683" width="210.763" height="107.911" rx="11.2919" fill="#7857ED"/>
<path d="M104.652 127.822H107.629C108.982 127.822 109.822 127.019 109.822 125.981C109.822 125.088 109.19 124.466 108.098 124.429V124.411C108.91 124.321 109.379 123.816 109.379 123.085C109.379 122.138 108.613 121.506 107.467 121.506H104.652V127.822ZM105.843 126.856V124.989H107.413C108.189 124.989 108.595 125.341 108.595 125.918C108.595 126.496 108.207 126.856 107.413 126.856H105.843ZM105.843 124.06V122.472H107.214C107.837 122.472 108.161 122.787 108.161 123.266C108.161 123.744 107.828 124.06 107.214 124.06H105.843ZM112.851 127.975C114.078 127.975 114.945 127.289 115.161 126.297H113.988C113.835 126.775 113.42 127.073 112.869 127.073C112.112 127.073 111.633 126.514 111.597 125.666H115.224V125.151C115.224 123.554 114.205 122.706 112.842 122.706C111.408 122.706 110.388 123.69 110.388 125.341C110.388 126.983 111.381 127.975 112.851 127.975ZM111.606 124.844C111.679 124.15 112.085 123.608 112.869 123.608C113.645 123.608 114.078 124.123 114.078 124.844H111.606ZM117.762 127.822H119.079V126.893H118.15C117.771 126.893 117.554 126.73 117.554 126.306V123.789H119.052V122.86H117.554V121.506H116.408V122.86H115.452V123.789H116.408V126.477C116.408 127.38 116.877 127.822 117.762 127.822ZM122.902 126.893H122.92V127.082C122.92 127.551 123.217 127.822 123.759 127.822H124.535V126.893H124.345C124.101 126.893 124.011 126.802 124.011 126.559V124.429C124.011 123.428 123.416 122.706 121.909 122.706C120.42 122.706 119.726 123.401 119.654 124.466H120.845C120.881 123.915 121.287 123.608 121.927 123.608C122.459 123.608 122.874 123.825 122.874 124.276C122.874 124.619 122.649 124.817 122.153 124.817H121.35C120.366 124.817 119.464 125.25 119.464 126.387C119.464 127.425 120.213 127.975 121.178 127.975C121.945 127.975 122.586 127.632 122.902 126.893ZM120.682 126.342C120.682 125.954 120.935 125.656 121.53 125.638L121.9 125.62C122.414 125.602 122.703 125.449 122.856 125.142H122.874V125.602C122.874 126.631 122.207 127.055 121.53 127.055C120.935 127.055 120.682 126.73 120.682 126.342ZM128.986 127.822H130.304V126.893H129.374C128.995 126.893 128.779 126.73 128.779 126.306V123.789H130.276V122.86H128.779V121.506H127.633V122.86H126.677V123.789H127.633V126.477C127.633 127.38 128.102 127.822 128.986 127.822ZM133.037 127.975C134.264 127.975 135.13 127.289 135.346 126.297H134.173C134.02 126.775 133.605 127.073 133.055 127.073C132.297 127.073 131.819 126.514 131.782 125.666H135.409V125.151C135.409 123.554 134.39 122.706 133.027 122.706C131.593 122.706 130.573 123.69 130.573 125.341C130.573 126.983 131.566 127.975 133.037 127.975ZM131.791 124.844C131.864 124.15 132.27 123.608 133.055 123.608C133.83 123.608 134.264 124.123 134.264 124.844H131.791ZM138.106 127.975C139.486 127.975 140.262 127.28 140.262 126.297C140.262 125.485 139.721 124.817 138.53 124.817H137.934C137.474 124.817 137.195 124.637 137.195 124.267C137.195 123.861 137.529 123.608 138.07 123.608C138.674 123.608 138.981 123.906 139.008 124.466H140.172C140.136 123.41 139.405 122.706 138.07 122.706C136.771 122.706 136.004 123.365 136.004 124.312C136.004 125.151 136.608 125.72 137.646 125.72H138.187C138.801 125.72 139.044 125.954 139.044 126.342C139.044 126.784 138.71 127.073 138.097 127.073C137.51 127.073 137.113 126.802 137.086 126.18H135.914C135.95 127.271 136.717 127.975 138.106 127.975ZM142.881 127.822H144.198V126.893H143.269C142.89 126.893 142.673 126.73 142.673 126.306V123.789H144.171V122.86H142.673V121.506H141.527V122.86H140.571V123.789H141.527V126.477C141.527 127.38 141.996 127.822 142.881 127.822ZM146.931 127.975C148.158 127.975 149.024 127.289 149.24 126.297H148.068C147.914 126.775 147.499 127.073 146.949 127.073C146.191 127.073 145.713 126.514 145.677 125.666H149.304V125.151C149.304 123.554 148.284 122.706 146.922 122.706C145.487 122.706 144.468 123.69 144.468 125.341C144.468 126.983 145.46 127.975 146.931 127.975ZM145.686 124.844C145.758 124.15 146.164 123.608 146.949 123.608C147.725 123.608 148.158 124.123 148.158 124.844H145.686ZM150.079 127.822H151.216V124.971C151.216 124.159 151.532 123.789 152.217 123.789H152.903V122.86H152.425C151.766 122.86 151.45 123.148 151.216 123.645H151.198V122.86H150.079V127.822Z" fill="#ECECFF"/>
<rect x="244.047" y="118.822" width="33.7024" height="13.3512" rx="6.6756" fill="#FAFAFB"/>
<path d="M251.494 127.498H252.543L252.871 126.546H254.505L254.826 127.498H255.901L254.202 122.995H253.193L251.494 127.498ZM253.135 125.767L253.276 125.356C253.476 124.764 253.598 124.346 253.681 124.018H253.688C253.771 124.346 253.894 124.764 254.08 125.311L254.235 125.767H253.135ZM256.28 128.784H257.239V127.343C257.239 127.208 257.239 127.092 257.226 126.964H257.239C257.445 127.369 257.837 127.613 258.339 127.613C259.156 127.613 259.863 126.964 259.863 125.729C259.863 124.494 259.156 123.844 258.339 123.844C257.837 123.844 257.445 124.088 257.239 124.494H257.226C257.239 124.371 257.239 124.269 257.239 124.153V123.96H256.28V128.784ZM257.232 125.729C257.232 125.021 257.509 124.571 258.036 124.571C258.557 124.571 258.84 125.021 258.84 125.729C258.84 126.436 258.557 126.886 258.036 126.886C257.509 126.886 257.232 126.436 257.232 125.729ZM260.351 128.784H261.309V127.343C261.309 127.208 261.309 127.092 261.296 126.964H261.309C261.515 127.369 261.907 127.613 262.409 127.613C263.226 127.613 263.934 126.964 263.934 125.729C263.934 124.494 263.226 123.844 262.409 123.844C261.907 123.844 261.515 124.088 261.309 124.494H261.296C261.309 124.371 261.309 124.269 261.309 124.153V123.96H260.351V128.784ZM261.303 125.729C261.303 125.021 261.579 124.571 262.107 124.571C262.628 124.571 262.911 125.021 262.911 125.729C262.911 126.436 262.628 126.886 262.107 126.886C261.579 126.886 261.303 126.436 261.303 125.729ZM264.421 127.498H265.38V122.474H264.421V127.498ZM265.696 128.784H267.162C267.355 128.784 267.49 128.694 267.561 128.514L269.394 123.96H268.372L267.561 126.115H267.548L266.731 123.96H265.696L267.047 127.305L266.731 128.031H265.696V128.784Z" fill="#7857ED"/>
<path d="M104.63 140.173H105.301V138.087H106.204C107.077 138.087 107.344 138.325 107.604 139.292L107.842 140.173H108.535L108.246 139.126C108.073 138.491 107.849 138.029 107.243 137.791V137.777C107.972 137.632 108.383 137.156 108.383 136.506C108.383 135.683 107.727 135.12 106.572 135.12H104.63V140.173ZM105.301 137.495V135.72H106.565C107.286 135.72 107.683 136.03 107.683 136.564C107.683 137.17 107.178 137.495 106.24 137.495H105.301ZM110.835 140.281C111.781 140.281 112.503 139.733 112.669 138.953H111.969C111.81 139.422 111.384 139.718 110.835 139.718C110.078 139.718 109.623 139.148 109.572 138.405H112.705V137.979C112.705 136.802 111.889 136.095 110.821 136.095C109.681 136.095 108.887 136.91 108.887 138.188C108.887 139.451 109.666 140.281 110.835 140.281ZM109.587 137.849C109.673 137.178 110.078 136.658 110.843 136.658C111.579 136.658 112.026 137.141 112.026 137.849H109.587ZM113.433 140.173H114.083V137.928C114.083 137.105 114.552 136.672 115.101 136.672C115.577 136.672 115.916 136.99 115.916 137.726V140.173H116.566V137.921C116.566 137.098 117.035 136.672 117.584 136.672C118.06 136.672 118.399 136.99 118.399 137.726V140.173H119.049V137.661C119.049 136.708 118.565 136.095 117.757 136.095C117.114 136.095 116.696 136.477 116.494 137.012H116.479C116.313 136.441 115.887 136.095 115.296 136.095C114.653 136.095 114.271 136.506 114.083 136.903H114.069V136.203H113.433V140.173ZM121.761 140.281C122.858 140.281 123.731 139.523 123.731 138.188C123.731 136.853 122.858 136.095 121.761 136.095C120.664 136.095 119.791 136.853 119.791 138.188C119.791 139.523 120.664 140.281 121.761 140.281ZM120.469 138.188C120.469 137.178 121.039 136.658 121.761 136.658C122.483 136.658 123.053 137.178 123.053 138.188C123.053 139.198 122.483 139.718 121.761 139.718C121.039 139.718 120.469 139.198 120.469 138.188ZM125.781 140.173H126.669V139.595H125.853C125.55 139.595 125.377 139.466 125.377 139.126V136.781H126.633V136.203H125.377V135.12H124.727V136.203H123.933V136.781H124.727V139.126C124.727 139.826 125.088 140.173 125.781 140.173ZM128.837 140.281C129.783 140.281 130.504 139.733 130.671 138.953H129.97C129.812 139.422 129.386 139.718 128.837 139.718C128.079 139.718 127.625 139.148 127.574 138.405H130.707V137.979C130.707 136.802 129.891 136.095 128.823 136.095C127.682 136.095 126.888 136.91 126.888 138.188C126.888 139.451 127.668 140.281 128.837 140.281ZM127.589 137.849C127.675 137.178 128.079 136.658 128.844 136.658C129.581 136.658 130.028 137.141 130.028 137.849H127.589Z" fill="#ECECFF"/>
<rect opacity="0.2" x="104.074" y="155" width="173.675" height="6.74497" rx="3.37248" fill="#ECECFF"/>
<rect opacity="0.2" x="104.074" y="167.141" width="173.675" height="6.74497" rx="3.37248" fill="#ECECFF"/>
<rect opacity="0.2" x="104.074" y="179.281" width="126.309" height="6.74497" rx="3.37248" fill="#ECECFF"/>
<rect x="85.5303" y="98.4683" width="210.763" height="107.911" rx="11.2919" stroke="#FAFAFB"/>
</svg>
