<svg width="227" height="151" viewBox="0 0 227 151" fill="none" xmlns="http://www.w3.org/2000/svg">
<path d="M190 1L210 1C218.837 1 226 8.16344 226 17V37" stroke="#FAFAFB" stroke-linecap="round" stroke-dasharray="2 2"/>
<path d="M37 150L17 150C8.16344 150 1 142.837 1 134L1 114" stroke="#FAFAFB" stroke-linecap="round" stroke-dasharray="2 2"/>
<rect x="62.1267" y="8.62274" width="156.251" height="80.0073" rx="8.37726" fill="#7857ED"/>
<path d="M78.1004 30.5026C79.3243 30.5026 80.0466 29.8873 80.0466 28.9376C80.0466 28.2287 79.632 27.6067 78.4549 27.6067H77.8597C77.2912 27.6067 77.0838 27.3593 77.0838 27.0249C77.0838 26.5768 77.4517 26.3092 78.067 26.3092C78.7157 26.3092 79.0501 26.6169 79.0769 27.2322H79.9797C79.953 26.2424 79.3377 25.5936 78.0737 25.5936C76.8698 25.5936 76.1743 26.1822 76.1743 27.0717C76.1743 27.8207 76.6625 28.3491 77.6991 28.3491H78.2944C78.923 28.3491 79.1237 28.63 79.1237 28.9844C79.1237 29.4793 78.7425 29.787 78.1138 29.787C77.445 29.787 77.0571 29.4392 77.0303 28.7704H76.1074C76.1408 29.8405 76.8297 30.5026 78.1004 30.5026ZM82.3144 30.5026C83.224 30.5026 83.8661 29.9943 84.0266 29.2586H83.1571C83.0434 29.6131 82.7358 29.8338 82.3278 29.8338C81.766 29.8338 81.4116 29.4192 81.3848 28.7905H84.0734V28.4093C84.0734 27.2255 83.3176 26.5968 82.3077 26.5968C81.2444 26.5968 80.4886 27.3258 80.4886 28.5497C80.4886 29.7669 81.2243 30.5026 82.3144 30.5026ZM81.3915 28.1819C81.445 27.6669 81.746 27.2656 82.3278 27.2656C82.903 27.2656 83.224 27.6468 83.224 28.1819H81.3915ZM84.6481 30.3889H85.4908V28.2822C85.4908 27.5465 85.9055 27.2723 86.3268 27.2723C86.7415 27.2723 87.0224 27.5398 87.0224 28.1819V30.3889H87.8651V28.0816C87.8651 27.1051 87.3701 26.5968 86.6211 26.5968C86.1128 26.5968 85.7115 26.8376 85.4908 27.2723H85.4774V26.7105H84.6481V30.3889ZM88.5865 30.3889H89.4292V26.7105H88.5865V30.3889ZM88.5731 26.1287H89.4359V25.3127H88.5731V26.1287ZM91.8771 30.5026C92.9138 30.5026 93.7431 29.8071 93.7431 28.5497C93.7431 27.2924 92.9138 26.5968 91.8771 26.5968C90.8405 26.5968 90.0112 27.2924 90.0112 28.5497C90.0112 29.8071 90.8405 30.5026 91.8771 30.5026ZM90.9141 28.5497C90.9141 27.7003 91.2953 27.2656 91.8771 27.2656C92.459 27.2656 92.8402 27.7003 92.8402 28.5497C92.8402 29.3991 92.459 29.8338 91.8771 29.8338C91.2953 29.8338 90.9141 29.3991 90.9141 28.5497ZM94.3274 30.3889H95.1701V28.2755C95.1701 27.6736 95.4042 27.3994 95.9125 27.3994H96.4208V26.7105H96.0663C95.5781 26.7105 95.344 26.9245 95.1701 27.2924H95.1568V26.7105H94.3274V30.3889ZM98.3314 30.3889H99.2142V28.6233H100.438C101.374 28.6233 102.05 28.1016 102.05 27.172C102.05 26.249 101.374 25.7073 100.438 25.7073H98.3314V30.3889ZM99.2142 27.9077V26.4229H100.251C100.799 26.4229 101.14 26.7172 101.14 27.172C101.14 27.6268 100.799 27.9077 100.251 27.9077H99.2142ZM102.589 30.3889H103.432V28.2755C103.432 27.6736 103.666 27.3994 104.175 27.3994H104.683V26.7105H104.328C103.84 26.7105 103.606 26.9245 103.432 27.2924H103.419V26.7105H102.589V30.3889ZM106.664 30.5026C107.701 30.5026 108.53 29.8071 108.53 28.5497C108.53 27.2924 107.701 26.5968 106.664 26.5968C105.627 26.5968 104.798 27.2924 104.798 28.5497C104.798 29.8071 105.627 30.5026 106.664 30.5026ZM105.701 28.5497C105.701 27.7003 106.082 27.2656 106.664 27.2656C107.246 27.2656 107.627 27.7003 107.627 28.5497C107.627 29.3991 107.246 29.8338 106.664 29.8338C106.082 29.8338 105.701 29.3991 105.701 28.5497ZM110.584 30.5026C111.146 30.5026 111.594 30.215 111.814 29.7469H111.828C111.821 29.8873 111.821 30.0077 111.821 30.1415V30.3889H112.657V25.1656H111.814V26.978C111.814 27.1118 111.814 27.2255 111.828 27.3526H111.814C111.594 26.8844 111.146 26.5968 110.584 26.5968C109.728 26.5968 108.945 27.2723 108.945 28.5497C108.945 29.8271 109.728 30.5026 110.584 30.5026ZM109.848 28.5497C109.848 27.7739 110.216 27.2656 110.838 27.2656C111.453 27.2656 111.821 27.7739 111.821 28.5497C111.821 29.3255 111.453 29.8338 110.838 29.8338C110.216 29.8338 109.848 29.3255 109.848 28.5497ZM114.623 30.5026C115.111 30.5026 115.512 30.2819 115.733 29.8271H115.746V30.3889H116.575V26.7105H115.733V28.8172C115.733 29.5529 115.332 29.8271 114.903 29.8271C114.489 29.8271 114.208 29.573 114.208 28.9176V26.7105H113.365V29.0179C113.365 29.9943 113.86 30.5026 114.623 30.5026ZM119.014 30.5026C120.038 30.5026 120.633 29.8472 120.74 29.058H119.871C119.824 29.4058 119.556 29.8338 119.014 29.8338C118.433 29.8338 118.051 29.3456 118.051 28.5497C118.051 27.8007 118.379 27.2656 119.014 27.2656C119.57 27.2656 119.837 27.6602 119.871 28.115H120.74C120.66 27.2522 120.071 26.5968 119.014 26.5968C117.844 26.5968 117.149 27.3659 117.149 28.5497C117.149 29.7335 117.898 30.5026 119.014 30.5026ZM122.634 30.3889H123.61V29.7001H122.921C122.641 29.7001 122.48 29.5797 122.48 29.2653V27.3994H123.59V26.7105H122.48V25.7073H121.631V26.7105H120.922V27.3994H121.631V29.3924C121.631 30.0612 121.978 30.3889 122.634 30.3889ZM125.56 30.3889H127.386C128.697 30.3889 129.673 29.5462 129.673 28.0481C129.673 26.55 128.697 25.7073 127.386 25.7073H125.56V30.3889ZM126.443 29.6733V26.4229H127.306C128.169 26.4229 128.737 26.9647 128.737 28.0481C128.737 29.1249 128.169 29.6733 127.306 29.6733H126.443ZM131.919 30.5026C132.829 30.5026 133.471 29.9943 133.631 29.2586H132.762C132.648 29.6131 132.341 29.8338 131.933 29.8338C131.371 29.8338 131.016 29.4192 130.99 28.7905H133.678V28.4093C133.678 27.2255 132.922 26.5968 131.913 26.5968C130.849 26.5968 130.093 27.3258 130.093 28.5497C130.093 29.7669 130.829 30.5026 131.919 30.5026ZM130.996 28.1819C131.05 27.6669 131.351 27.2656 131.933 27.2656C132.508 27.2656 132.829 27.6468 132.829 28.1819H130.996ZM135.677 30.5026C136.7 30.5026 137.276 29.9876 137.276 29.2586C137.276 28.6567 136.874 28.1618 135.992 28.1618H135.55C135.209 28.1618 135.002 28.0281 135.002 27.7538C135.002 27.4529 135.249 27.2656 135.65 27.2656C136.099 27.2656 136.326 27.4863 136.346 27.901H137.209C137.182 27.1185 136.64 26.5968 135.65 26.5968C134.687 26.5968 134.119 27.085 134.119 27.7873C134.119 28.4093 134.567 28.8306 135.336 28.8306H135.737C136.192 28.8306 136.373 29.0045 136.373 29.2921C136.373 29.6198 136.125 29.8338 135.671 29.8338C135.236 29.8338 134.942 29.6332 134.921 29.1717H134.052C134.079 29.9809 134.647 30.5026 135.677 30.5026ZM137.852 30.3889H138.694V26.7105H137.852V30.3889ZM137.838 26.1287H138.701V25.3127H137.838V26.1287ZM141.162 31.8469C142.36 31.8469 142.995 31.1447 142.995 30.0545V26.7105H142.146V26.978C142.146 27.1118 142.146 27.2255 142.159 27.3526H142.146C141.925 26.8844 141.477 26.5968 140.915 26.5968C140.059 26.5968 139.276 27.2723 139.276 28.5497C139.276 29.8271 140.059 30.5026 140.915 30.5026C141.477 30.5026 141.925 30.215 142.146 29.7469H142.159C142.146 29.8873 142.146 29.9676 142.146 30.0946V30.108C142.146 30.8236 141.718 31.1781 141.176 31.1781C140.795 31.1781 140.52 31.0042 140.447 30.7969H139.551C139.617 31.3319 140.153 31.8469 141.162 31.8469ZM140.179 28.5497C140.179 27.7739 140.547 27.2656 141.169 27.2656C141.784 27.2656 142.152 27.7739 142.152 28.5497C142.152 29.3255 141.784 29.8338 141.169 29.8338C140.547 29.8338 140.179 29.3255 140.179 28.5497ZM143.815 30.3889H144.657V28.2822C144.657 27.5465 145.072 27.2723 145.493 27.2723C145.908 27.2723 146.189 27.5398 146.189 28.1819V30.3889H147.032V28.0816C147.032 27.1051 146.537 26.5968 145.788 26.5968C145.279 26.5968 144.878 26.8376 144.657 27.2723H144.644V26.7105H143.815V30.3889ZM149.43 30.5026C150.339 30.5026 150.981 29.9943 151.142 29.2586H150.272C150.159 29.6131 149.851 29.8338 149.443 29.8338C148.881 29.8338 148.527 29.4192 148.5 28.7905H151.189V28.4093C151.189 27.2255 150.433 26.5968 149.423 26.5968C148.359 26.5968 147.604 27.3258 147.604 28.5497C147.604 29.7669 148.339 30.5026 149.43 30.5026ZM148.507 28.1819C148.56 27.6669 148.861 27.2656 149.443 27.2656C150.018 27.2656 150.339 27.6468 150.339 28.1819H148.507ZM151.763 30.3889H152.606V28.2755C152.606 27.6736 152.84 27.3994 153.348 27.3994H153.857V26.7105H153.502C153.014 26.7105 152.78 26.9245 152.606 27.2924H152.593V26.7105H151.763V30.3889Z" fill="#ECECFF"/>
<rect x="179.725" y="23.3889" width="24.8988" height="10.4494" rx="5.2247" fill="#FAFAFB"/>
<path d="M185.246 30.1135H186.023L186.267 29.4078H187.478L187.716 30.1135H188.512L187.254 26.7758H186.505L185.246 30.1135ZM186.462 28.8309L186.567 28.5257C186.715 28.087 186.805 27.7771 186.867 27.5339H186.872C186.934 27.7771 187.025 28.087 187.163 28.4923L187.277 28.8309H186.462ZM188.794 31.0672H189.504V29.9991C189.504 29.899 189.504 29.8131 189.495 29.7178H189.504C189.657 30.0182 189.948 30.1994 190.32 30.1994C190.925 30.1994 191.45 29.7178 191.45 28.8023C191.45 27.8868 190.925 27.4052 190.32 27.4052C189.948 27.4052 189.657 27.5864 189.504 27.8868H189.495C189.504 27.7962 189.504 27.7199 189.504 27.6341V27.491H188.794V31.0672ZM189.5 28.8023C189.5 28.2778 189.705 27.944 190.096 27.944C190.482 27.944 190.692 28.2778 190.692 28.8023C190.692 29.3268 190.482 29.6605 190.096 29.6605C189.705 29.6605 189.5 29.3268 189.5 28.8023ZM191.811 31.0672H192.522V29.9991C192.522 29.899 192.522 29.8131 192.512 29.7178H192.522C192.674 30.0182 192.965 30.1994 193.337 30.1994C193.943 30.1994 194.467 29.7178 194.467 28.8023C194.467 27.8868 193.943 27.4052 193.337 27.4052C192.965 27.4052 192.674 27.5864 192.522 27.8868H192.512C192.522 27.7962 192.522 27.7199 192.522 27.6341V27.491H191.811V31.0672ZM192.517 28.8023C192.517 28.2778 192.722 27.944 193.113 27.944C193.499 27.944 193.709 28.2778 193.709 28.8023C193.709 29.3268 193.499 29.6605 193.113 29.6605C192.722 29.6605 192.517 29.3268 192.517 28.8023ZM194.829 30.1135H195.539V26.3895H194.829V30.1135ZM195.774 31.0672H196.861C197.004 31.0672 197.104 31.0004 197.156 30.8669L198.515 27.491H197.757L197.156 29.0884H197.147L196.541 27.491H195.774L196.775 29.9705L196.541 30.5093H195.774V31.0672Z" fill="#7857ED"/>
<path d="M76.292 39.8384H76.7896V38.2921H77.4584C78.1058 38.2921 78.3037 38.4687 78.4964 39.1856L78.6729 39.8384H79.1866L78.9725 39.0626C78.8441 38.5917 78.6783 38.2493 78.2288 38.0727V38.062C78.7692 37.955 79.0742 37.6019 79.0742 37.1204C79.0742 36.5104 78.5873 36.0931 77.7312 36.0931H76.292V39.8384ZM76.7896 37.8534V36.5372H77.7259C78.2609 36.5372 78.5552 36.7672 78.5552 37.1632C78.5552 37.6126 78.1807 37.8534 77.4851 37.8534H76.7896ZM80.8918 39.9186C81.5927 39.9186 82.1278 39.512 82.2508 38.9342H81.7318C81.6141 39.2819 81.2985 39.5013 80.8918 39.5013C80.33 39.5013 79.993 39.0786 79.9555 38.5275H82.2776V38.2119C82.2776 37.3397 81.673 36.8154 80.8811 36.8154C80.0358 36.8154 79.4472 37.42 79.4472 38.367C79.4472 39.3033 80.0251 39.9186 80.8918 39.9186ZM79.9662 38.1155C80.0304 37.618 80.33 37.2327 80.8972 37.2327C81.4429 37.2327 81.7746 37.5912 81.7746 38.1155H79.9662ZM82.8178 39.8384H83.2993V38.1744C83.2993 37.5645 83.6471 37.2434 84.0537 37.2434C84.4068 37.2434 84.6583 37.4789 84.6583 38.0246V39.8384H85.1398V38.1691C85.1398 37.5591 85.4876 37.2434 85.8942 37.2434C86.2474 37.2434 86.4988 37.4789 86.4988 38.0246V39.8384H86.9804V37.9764C86.9804 37.2702 86.6219 36.8154 86.0226 36.8154C85.5465 36.8154 85.2361 37.099 85.0863 37.4949H85.0756C84.9526 37.0722 84.6369 36.8154 84.1982 36.8154C83.722 36.8154 83.4384 37.1204 83.2993 37.4146H83.2886V36.8957H82.8178V39.8384ZM88.991 39.9186C89.8042 39.9186 90.4516 39.3568 90.4516 38.367C90.4516 37.3772 89.8042 36.8154 88.991 36.8154C88.1777 36.8154 87.5303 37.3772 87.5303 38.367C87.5303 39.3568 88.1777 39.9186 88.991 39.9186ZM88.0332 38.367C88.0332 37.618 88.4559 37.2327 88.991 37.2327C89.526 37.2327 89.9487 37.618 89.9487 38.367C89.9487 39.1161 89.526 39.5013 88.991 39.5013C88.4559 39.5013 88.0332 39.1161 88.0332 38.367ZM91.971 39.8384H92.6291V39.4103H92.0245C91.7998 39.4103 91.6714 39.314 91.6714 39.0626V37.3237H92.6024V36.8957H91.6714V36.0931H91.1899V36.8957H90.6013V37.3237H91.1899V39.0626C91.1899 39.5816 91.4574 39.8384 91.971 39.8384ZM94.2365 39.9186C94.9374 39.9186 95.4724 39.512 95.5955 38.9342H95.0765C94.9588 39.2819 94.6431 39.5013 94.2365 39.5013C93.6747 39.5013 93.3376 39.0786 93.3002 38.5275H95.6222V38.2119C95.6222 37.3397 95.0176 36.8154 94.2258 36.8154C93.3804 36.8154 92.7919 37.42 92.7919 38.367C92.7919 39.3033 93.3697 39.9186 94.2365 39.9186ZM93.3109 38.1155C93.3751 37.618 93.6747 37.2327 94.2418 37.2327C94.7876 37.2327 95.1193 37.5912 95.1193 38.1155H93.3109Z" fill="#ECECFF"/>
<rect opacity="0.2" x="75.88" y="50.864" width="128.744" height="5" rx="2.5" fill="#ECECFF"/>
<rect opacity="0.2" x="75.88" y="59.864" width="128.744" height="5" rx="2.5" fill="#ECECFF"/>
<rect opacity="0.2" x="75.88" y="68.864" width="93.632" height="5" rx="2.5" fill="#ECECFF"/>
<rect x="62.1267" y="8.62274" width="156.251" height="80.0073" rx="8.37726" stroke="#FAFAFB" stroke-width="0.754513"/>
<rect x="35.3747" y="35.3747" width="156.251" height="80.0073" rx="8.37726" fill="#BBED55"/>
<path d="M50.7465 57.1409H51.6293V53.1749H53.1542V52.4593H49.2149V53.1749H50.7465V57.1409ZM55.2077 56.452H55.2211V56.5925C55.2211 56.9402 55.4418 57.1409 55.8431 57.1409H56.4182V56.452H56.2778C56.0972 56.452 56.0303 56.3851 56.0303 56.2045V54.6262C56.0303 53.8838 55.5889 53.3488 54.472 53.3488C53.3685 53.3488 52.8535 53.8637 52.8 54.6529H53.6828C53.7096 54.245 54.0106 54.0176 54.4854 54.0176C54.88 54.0176 55.1876 54.1781 55.1876 54.5125C55.1876 54.7666 55.0204 54.9138 54.6526 54.9138H54.0574C53.3284 54.9138 52.6596 55.2348 52.6596 56.0775C52.6596 56.8466 53.2147 57.2546 53.9303 57.2546C54.4988 57.2546 54.9736 57.0004 55.2077 56.452ZM53.5625 56.044C53.5625 55.7565 53.7497 55.5357 54.1911 55.5224L54.4653 55.509C54.8466 55.4956 55.0606 55.3819 55.1743 55.1545H55.1876V55.4956C55.1876 56.2581 54.6927 56.5724 54.1911 56.5724C53.7497 56.5724 53.5625 56.3316 53.5625 56.044ZM56.9099 57.1409H57.7526V51.9175H56.9099V57.1409ZM60.1604 57.2546C61.07 57.2546 61.7121 56.7463 61.8726 56.0106H61.0031C60.8894 56.3651 60.5818 56.5858 60.1738 56.5858C59.612 56.5858 59.2576 56.1711 59.2308 55.5424H61.9194V55.1612C61.9194 53.9774 61.1636 53.3488 60.1537 53.3488C59.0904 53.3488 58.3346 54.0778 58.3346 55.3017C58.3346 56.5189 59.0703 57.2546 60.1604 57.2546ZM59.2375 54.9338C59.291 54.4189 59.592 54.0176 60.1738 54.0176C60.749 54.0176 61.07 54.3988 61.07 54.9338H59.2375ZM62.4941 57.1409H63.3368V55.0341C63.3368 54.2985 63.7515 54.0243 64.1728 54.0243C64.5875 54.0243 64.8684 54.2918 64.8684 54.9338V57.1409H65.7111V54.8335C65.7111 53.8571 65.2161 53.3488 64.4671 53.3488C63.9588 53.3488 63.5575 53.5895 63.3368 54.0243H63.3234V53.4625H62.4941V57.1409ZM67.7583 57.1409H68.7347V56.452H68.0459C67.765 56.452 67.6044 56.3316 67.6044 56.0173V54.1513H68.7147V53.4625H67.6044V52.4593H66.7551V53.4625H66.0461V54.1513H66.7551V56.1444C66.7551 56.8132 67.1028 57.1409 67.7583 57.1409ZM70.6846 57.1409H71.5674V55.1412H73.5672V57.1409H74.45V52.4593H73.5672V54.4255H71.5674V52.4593H70.6846V57.1409ZM76.9206 57.2546C77.9572 57.2546 78.7865 56.559 78.7865 55.3017C78.7865 54.0443 77.9572 53.3488 76.9206 53.3488C75.8839 53.3488 75.0546 54.0443 75.0546 55.3017C75.0546 56.559 75.8839 57.2546 76.9206 57.2546ZM75.9575 55.3017C75.9575 54.4523 76.3387 54.0176 76.9206 54.0176C77.5024 54.0176 77.8836 54.4523 77.8836 55.3017C77.8836 56.151 77.5024 56.5858 76.9206 56.5858C76.3387 56.5858 75.9575 56.151 75.9575 55.3017ZM80.6144 57.2546C81.1026 57.2546 81.5039 57.0339 81.7246 56.5791H81.738V57.1409H82.5673V53.4625H81.7246V55.5692C81.7246 56.3049 81.3233 56.5791 80.8953 56.5791C80.4806 56.5791 80.1997 56.3249 80.1997 55.6695V53.4625H79.357V55.7698C79.357 56.7463 79.852 57.2546 80.6144 57.2546ZM84.7465 57.2546C85.7698 57.2546 86.345 56.7396 86.345 56.0106C86.345 55.4087 85.9437 54.9138 85.0609 54.9138H84.6194C84.2784 54.9138 84.071 54.78 84.071 54.5058C84.071 54.2048 84.3185 54.0176 84.7198 54.0176C85.1679 54.0176 85.3953 54.2383 85.4153 54.6529H86.2781C86.2513 53.8704 85.7096 53.3488 84.7198 53.3488C83.7567 53.3488 83.1882 53.837 83.1882 54.5392C83.1882 55.1612 83.6363 55.5826 84.4054 55.5826H84.8067C85.2615 55.5826 85.4421 55.7565 85.4421 56.044C85.4421 56.3717 85.1946 56.5858 84.7398 56.5858C84.3051 56.5858 84.0108 56.3851 83.9908 55.9237H83.1213C83.1481 56.7329 83.7166 57.2546 84.7465 57.2546ZM88.5453 57.2546C89.4548 57.2546 90.0969 56.7463 90.2574 56.0106H89.3879C89.2742 56.3651 88.9666 56.5858 88.5586 56.5858C87.9968 56.5858 87.6424 56.1711 87.6156 55.5424H90.3042V55.1612C90.3042 53.9774 89.5485 53.3488 88.5386 53.3488C87.4752 53.3488 86.7194 54.0778 86.7194 55.3017C86.7194 56.5189 87.4551 57.2546 88.5453 57.2546ZM87.6223 54.9338C87.6758 54.4189 87.9768 54.0176 88.5586 54.0176C89.1338 54.0176 89.4548 54.3988 89.4548 54.9338H87.6223Z" fill="#252F11"/>
<rect x="152.973" y="50.1409" width="24.8988" height="10.4494" rx="5.2247" fill="#252F11"/>
<path d="M158.494 56.8655H159.271L159.515 56.1598H160.726L160.964 56.8655H161.76L160.502 53.5277H159.753L158.494 56.8655ZM159.71 55.5828L159.815 55.2777C159.963 54.839 160.053 54.5291 160.115 54.2859H160.12C160.182 54.5291 160.273 54.839 160.411 55.2443L160.525 55.5828H159.71ZM162.042 57.8191H162.752V56.751C162.752 56.6509 162.752 56.5651 162.743 56.4697H162.752C162.905 56.7701 163.196 56.9513 163.568 56.9513C164.173 56.9513 164.698 56.4697 164.698 55.5542C164.698 54.6387 164.173 54.1571 163.568 54.1571C163.196 54.1571 162.905 54.3383 162.752 54.6387H162.743C162.752 54.5481 162.752 54.4718 162.752 54.386V54.243H162.042V57.8191ZM162.748 55.5542C162.748 55.0297 162.953 54.6959 163.344 54.6959C163.73 54.6959 163.94 55.0297 163.94 55.5542C163.94 56.0787 163.73 56.4125 163.344 56.4125C162.953 56.4125 162.748 56.0787 162.748 55.5542ZM165.059 57.8191H165.77V56.751C165.77 56.6509 165.77 56.5651 165.76 56.4697H165.77C165.922 56.7701 166.213 56.9513 166.585 56.9513C167.191 56.9513 167.715 56.4697 167.715 55.5542C167.715 54.6387 167.191 54.1571 166.585 54.1571C166.213 54.1571 165.922 54.3383 165.77 54.6387H165.76C165.77 54.5481 165.77 54.4718 165.77 54.386V54.243H165.059V57.8191ZM165.765 55.5542C165.765 55.0297 165.97 54.6959 166.361 54.6959C166.747 54.6959 166.957 55.0297 166.957 55.5542C166.957 56.0787 166.747 56.4125 166.361 56.4125C165.97 56.4125 165.765 56.0787 165.765 55.5542ZM168.077 56.8655H168.787V53.1415H168.077V56.8655ZM169.022 57.8191H170.109C170.252 57.8191 170.352 57.7524 170.404 57.6189L171.763 54.243H171.005L170.404 55.8403H170.395L169.789 54.243H169.022L170.023 56.7224L169.789 57.2612H169.022V57.8191Z" fill="#BBED55"/>
<path d="M49.54 66.5903H50.0376V65.0441H50.7064C51.3538 65.0441 51.5517 65.2206 51.7444 65.9376L51.9209 66.5903H52.4346L52.2205 65.8145C52.0921 65.3437 51.9263 65.0013 51.4768 64.8247V64.814C52.0172 64.707 52.3222 64.3539 52.3222 63.8723C52.3222 63.2624 51.8353 62.8451 50.9792 62.8451H49.54V66.5903ZM50.0376 64.6053V63.2891H50.9739C51.5089 63.2891 51.8032 63.5192 51.8032 63.9151C51.8032 64.3646 51.4287 64.6053 50.7331 64.6053H50.0376ZM54.1398 66.6706C54.8407 66.6706 55.3758 66.264 55.4988 65.6861H54.9798C54.8621 66.0339 54.5465 66.2533 54.1398 66.2533C53.578 66.2533 53.241 65.8306 53.2035 65.2795H55.5256V64.9638C55.5256 64.0917 54.921 63.5674 54.1291 63.5674C53.2838 63.5674 52.6952 64.172 52.6952 65.119C52.6952 66.0553 53.2731 66.6706 54.1398 66.6706ZM53.2142 64.8675C53.2784 64.3699 53.578 63.9847 54.1452 63.9847C54.6909 63.9847 55.0226 64.3432 55.0226 64.8675H53.2142ZM56.0658 66.5903H56.5473V64.9264C56.5473 64.3164 56.8951 63.9954 57.3017 63.9954C57.6548 63.9954 57.9063 64.2308 57.9063 64.7765V66.5903H58.3878V64.921C58.3878 64.3111 58.7356 63.9954 59.1422 63.9954C59.4954 63.9954 59.7468 64.2308 59.7468 64.7765V66.5903H60.2284V64.7284C60.2284 64.0221 59.8699 63.5674 59.2707 63.5674C58.7945 63.5674 58.4841 63.8509 58.3343 64.2469H58.3236C58.2006 63.8242 57.8849 63.5674 57.4462 63.5674C56.97 63.5674 56.6864 63.8723 56.5473 64.1666H56.5366V63.6476H56.0658V66.5903ZM62.239 66.6706C63.0522 66.6706 63.6996 66.1088 63.6996 65.119C63.6996 64.1291 63.0522 63.5674 62.239 63.5674C61.4257 63.5674 60.7783 64.1291 60.7783 65.119C60.7783 66.1088 61.4257 66.6706 62.239 66.6706ZM61.2812 65.119C61.2812 64.3699 61.7039 63.9847 62.239 63.9847C62.774 63.9847 63.1967 64.3699 63.1967 65.119C63.1967 65.868 62.774 66.2533 62.239 66.2533C61.7039 66.2533 61.2812 65.868 61.2812 65.119ZM65.219 66.5903H65.8771V66.1623H65.2725C65.0478 66.1623 64.9194 66.066 64.9194 65.8145V64.0756H65.8504V63.6476H64.9194V62.8451H64.4379V63.6476H63.8493V64.0756H64.4379V65.8145C64.4379 66.3335 64.7054 66.5903 65.219 66.5903ZM67.4845 66.6706C68.1854 66.6706 68.7204 66.264 68.8435 65.6861H68.3245C68.2068 66.0339 67.8911 66.2533 67.4845 66.2533C66.9227 66.2533 66.5856 65.8306 66.5482 65.2795H68.8702V64.9638C68.8702 64.0917 68.2656 63.5674 67.4738 63.5674C66.6284 63.5674 66.0399 64.172 66.0399 65.119C66.0399 66.0553 66.6177 66.6706 67.4845 66.6706ZM66.5589 64.8675C66.6231 64.3699 66.9227 63.9847 67.4898 63.9847C68.0356 63.9847 68.3673 64.3432 68.3673 64.8675H66.5589Z" fill="#ECECFF"/>
<rect opacity="0.2" x="49.128" y="77.616" width="128.744" height="5" rx="2.5" fill="#ECECFF"/>
<rect opacity="0.2" x="49.128" y="86.616" width="128.744" height="5" rx="2.5" fill="#ECECFF"/>
<rect opacity="0.2" x="49.128" y="95.616" width="93.632" height="5" rx="2.5" fill="#ECECFF"/>
<rect x="35.3747" y="35.3747" width="156.251" height="80.0073" rx="8.37726" stroke="#7857ED" stroke-width="0.754513"/>
<rect x="8.62274" y="62.1266" width="156.251" height="80.0073" rx="8.37726" fill="#7857ED"/>
<path d="M22.804 83.8928H25.0111C26.0143 83.8928 26.6363 83.2976 26.6363 82.5285C26.6363 81.8664 26.1681 81.4049 25.3589 81.3781V81.3648C25.9608 81.2979 26.3086 80.9233 26.3086 80.3816C26.3086 79.6794 25.7401 79.2112 24.8907 79.2112H22.804V83.8928ZM23.6869 83.1772V81.7928H24.8506C25.4257 81.7928 25.7267 82.0536 25.7267 82.4817C25.7267 82.9097 25.4391 83.1772 24.8506 83.1772H23.6869ZM23.6869 81.1039V79.9268H24.7034C25.1649 79.9268 25.4057 80.1609 25.4057 80.5154C25.4057 80.8698 25.1582 81.1039 24.7034 81.1039H23.6869ZM28.8823 84.0065C29.7919 84.0065 30.4339 83.4982 30.5944 82.7626H29.725C29.6113 83.117 29.3036 83.3377 28.8957 83.3377C28.3339 83.3377 27.9794 82.9231 27.9527 82.2944H30.6412V81.9132C30.6412 80.7294 29.8855 80.1007 28.8756 80.1007C27.8122 80.1007 27.0565 80.8297 27.0565 82.0536C27.0565 83.2708 27.7921 84.0065 28.8823 84.0065ZM27.9593 81.6858C28.0128 81.1708 28.3138 80.7695 28.8957 80.7695C29.4708 80.7695 29.7919 81.1507 29.7919 81.6858H27.9593ZM32.5222 83.8928H33.4986V83.204H32.8098C32.5289 83.204 32.3684 83.0836 32.3684 82.7692V80.9033H33.4786V80.2144H32.3684V79.2112H31.519V80.2144H30.81V80.9033H31.519V82.8963C31.519 83.5651 31.8668 83.8928 32.5222 83.8928ZM36.3324 83.204H36.3458V83.3444C36.3458 83.6922 36.5665 83.8928 36.9678 83.8928H37.5429V83.204H37.4025C37.2219 83.204 37.155 83.1371 37.155 82.9565V81.3781C37.155 80.6358 36.7136 80.1007 35.5967 80.1007C34.4932 80.1007 33.9782 80.6157 33.9247 81.4049H34.8075C34.8343 80.9969 35.1352 80.7695 35.6101 80.7695C36.0047 80.7695 36.3123 80.93 36.3123 81.2644C36.3123 81.5186 36.1451 81.6657 35.7773 81.6657H35.1821C34.4531 81.6657 33.7843 81.9867 33.7843 82.8294C33.7843 83.5986 34.3394 84.0065 35.055 84.0065C35.6235 84.0065 36.0983 83.7524 36.3324 83.204ZM34.6872 82.796C34.6872 82.5084 34.8744 82.2877 35.3158 82.2743L35.59 82.2609C35.9712 82.2476 36.1853 82.1339 36.299 81.9065H36.3123V82.2476C36.3123 83.01 35.8174 83.3243 35.3158 83.3243C34.8744 83.3243 34.6872 83.0836 34.6872 82.796ZM40.843 83.8928H41.8194V83.204H41.1306C40.8497 83.204 40.6892 83.0836 40.6892 82.7692V80.9033H41.7994V80.2144H40.6892V79.2112H39.8398V80.2144H39.1309V80.9033H39.8398V82.8963C39.8398 83.5651 40.1876 83.8928 40.843 83.8928ZM43.8454 84.0065C44.7549 84.0065 45.397 83.4982 45.5575 82.7626H44.6881C44.5744 83.117 44.2667 83.3377 43.8588 83.3377C43.297 83.3377 42.9425 82.9231 42.9157 82.2944H45.6043V81.9132C45.6043 80.7294 44.8486 80.1007 43.8387 80.1007C42.7753 80.1007 42.0196 80.8297 42.0196 82.0536C42.0196 83.2708 42.7552 84.0065 43.8454 84.0065ZM42.9224 81.6858C42.9759 81.1708 43.2769 80.7695 43.8588 80.7695C44.4339 80.7695 44.7549 81.1507 44.7549 81.6858H42.9224ZM47.6033 84.0065C48.6266 84.0065 49.2017 83.4915 49.2017 82.7626C49.2017 82.1606 48.8005 81.6657 47.9176 81.6657H47.4762C47.1351 81.6657 46.9278 81.532 46.9278 81.2577C46.9278 80.9568 47.1753 80.7695 47.5766 80.7695C48.0246 80.7695 48.252 80.9902 48.2721 81.4049H49.1349C49.1081 80.6224 48.5664 80.1007 47.5766 80.1007C46.6135 80.1007 46.045 80.5889 46.045 81.2912C46.045 81.9132 46.4931 82.3345 47.2622 82.3345H47.6635C48.1183 82.3345 48.2989 82.5084 48.2989 82.796C48.2989 83.1237 48.0514 83.3377 47.5966 83.3377C47.1619 83.3377 46.8676 83.1371 46.8476 82.6756H45.9781C46.0049 83.4849 46.5734 84.0065 47.6033 84.0065ZM51.1428 83.8928H52.1192V83.204H51.4304C51.1495 83.204 50.9889 83.0836 50.9889 82.7692V80.9033H52.0992V80.2144H50.9889V79.2112H50.1396V80.2144H49.4306V80.9033H50.1396V82.8963C50.1396 83.5651 50.4873 83.8928 51.1428 83.8928ZM54.1452 84.0065C55.0547 84.0065 55.6968 83.4982 55.8573 82.7626H54.9878C54.8742 83.117 54.5665 83.3377 54.1585 83.3377C53.5967 83.3377 53.2423 82.9231 53.2155 82.2944H55.9041V81.9132C55.9041 80.7294 55.1484 80.1007 54.1385 80.1007C53.0751 80.1007 52.3193 80.8297 52.3193 82.0536C52.3193 83.2708 53.055 84.0065 54.1452 84.0065ZM53.2222 81.6858C53.2757 81.1708 53.5767 80.7695 54.1585 80.7695C54.7337 80.7695 55.0547 81.1507 55.0547 81.6858H53.2222ZM56.4789 83.8928H57.3215V81.7794C57.3215 81.1775 57.5556 80.9033 58.0639 80.9033H58.5722V80.2144H58.2177C57.7295 80.2144 57.4954 80.4284 57.3215 80.7963H57.3082V80.2144H56.4789V83.8928Z" fill="#ECECFF"/>
<rect x="126.221" y="76.8928" width="24.8988" height="10.4494" rx="5.2247" fill="#FAFAFB"/>
<path d="M131.742 83.6174H132.519L132.763 82.9117H133.974L134.212 83.6174H135.008L133.75 80.2797H133.001L131.742 83.6174ZM132.958 82.3348L133.063 82.0296C133.211 81.5909 133.301 81.281 133.363 81.0378H133.368C133.43 81.281 133.521 81.5909 133.659 81.9962L133.773 82.3348H132.958ZM135.29 84.5711H136V83.503C136 83.4029 136 83.317 135.991 83.2217H136C136.153 83.5221 136.444 83.7033 136.816 83.7033C137.421 83.7033 137.946 83.2217 137.946 82.3062C137.946 81.3907 137.421 80.9091 136.816 80.9091C136.444 80.9091 136.153 81.0903 136 81.3907H135.991C136 81.3001 136 81.2238 136 81.138V80.9949H135.29V84.5711ZM135.996 82.3062C135.996 81.7817 136.201 81.4479 136.592 81.4479C136.978 81.4479 137.188 81.7817 137.188 82.3062C137.188 82.8307 136.978 83.1645 136.592 83.1645C136.201 83.1645 135.996 82.8307 135.996 82.3062ZM138.307 84.5711H139.018V83.503C139.018 83.4029 139.018 83.317 139.008 83.2217H139.018C139.17 83.5221 139.461 83.7033 139.833 83.7033C140.439 83.7033 140.963 83.2217 140.963 82.3062C140.963 81.3907 140.439 80.9091 139.833 80.9091C139.461 80.9091 139.17 81.0903 139.018 81.3907H139.008C139.018 81.3001 139.018 81.2238 139.018 81.138V80.9949H138.307V84.5711ZM139.013 82.3062C139.013 81.7817 139.218 81.4479 139.609 81.4479C139.995 81.4479 140.205 81.7817 140.205 82.3062C140.205 82.8307 139.995 83.1645 139.609 83.1645C139.218 83.1645 139.013 82.8307 139.013 82.3062ZM141.325 83.6174H142.035V79.8935H141.325V83.6174ZM142.27 84.5711H143.357C143.5 84.5711 143.6 84.5043 143.652 84.3708L145.011 80.9949H144.253L143.652 82.5923H143.643L143.037 80.9949H142.27L143.271 83.4744L143.037 84.0132H142.27V84.5711Z" fill="#7857ED"/>
<path d="M22.788 93.3423H23.2856V91.796H23.9544C24.6018 91.796 24.7997 91.9726 24.9924 92.6895L25.1689 93.3423H25.6826L25.4685 92.5665C25.3401 92.0956 25.1743 91.7532 24.7248 91.5767V91.566C25.2652 91.4589 25.5702 91.1058 25.5702 90.6243C25.5702 90.0143 25.0833 89.597 24.2272 89.597H22.788V93.3423ZM23.2856 91.3573V90.0411H24.2219C24.7569 90.0411 25.0512 90.2712 25.0512 90.6671C25.0512 91.1165 24.6767 91.3573 23.9811 91.3573H23.2856ZM27.3878 93.4225C28.0887 93.4225 28.6238 93.0159 28.7468 92.4381H28.2278C28.1101 92.7858 27.7945 93.0052 27.3878 93.0052C26.826 93.0052 26.489 92.5825 26.4515 92.0314H28.7736V91.7158C28.7736 90.8436 28.169 90.3193 27.3771 90.3193C26.5318 90.3193 25.9432 90.9239 25.9432 91.8709C25.9432 92.8072 26.5211 93.4225 27.3878 93.4225ZM26.4622 91.6195C26.5264 91.1219 26.826 90.7366 27.3932 90.7366C27.9389 90.7366 28.2706 91.0951 28.2706 91.6195H26.4622ZM29.3138 93.3423H29.7953V91.6783C29.7953 91.0684 30.1431 90.7473 30.5497 90.7473C30.9028 90.7473 31.1543 90.9828 31.1543 91.5285V93.3423H31.6358V91.673C31.6358 91.063 31.9836 90.7473 32.3902 90.7473C32.7434 90.7473 32.9948 90.9828 32.9948 91.5285V93.3423H33.4764V91.4803C33.4764 90.7741 33.1179 90.3193 32.5187 90.3193C32.0425 90.3193 31.7321 90.6029 31.5823 90.9988H31.5716C31.4486 90.5761 31.1329 90.3193 30.6942 90.3193C30.218 90.3193 29.9344 90.6243 29.7953 90.9186H29.7846V90.3996H29.3138V93.3423ZM35.487 93.4225C36.3002 93.4225 36.9476 92.8607 36.9476 91.8709C36.9476 90.8811 36.3002 90.3193 35.487 90.3193C34.6737 90.3193 34.0263 90.8811 34.0263 91.8709C34.0263 92.8607 34.6737 93.4225 35.487 93.4225ZM34.5292 91.8709C34.5292 91.1219 34.9519 90.7366 35.487 90.7366C36.022 90.7366 36.4447 91.1219 36.4447 91.8709C36.4447 92.62 36.022 93.0052 35.487 93.0052C34.9519 93.0052 34.5292 92.62 34.5292 91.8709ZM38.467 93.3423H39.1251V92.9143H38.5205C38.2958 92.9143 38.1674 92.8179 38.1674 92.5665V90.8276H39.0984V90.3996H38.1674V89.597H37.6859V90.3996H37.0973V90.8276H37.6859V92.5665C37.6859 93.0855 37.9534 93.3423 38.467 93.3423ZM40.7325 93.4225C41.4334 93.4225 41.9684 93.0159 42.0915 92.4381H41.5725C41.4548 92.7858 41.1391 93.0052 40.7325 93.0052C40.1707 93.0052 39.8336 92.5825 39.7962 92.0314H42.1182V91.7158C42.1182 90.8436 41.5136 90.3193 40.7218 90.3193C39.8764 90.3193 39.2879 90.9239 39.2879 91.8709C39.2879 92.8072 39.8657 93.4225 40.7325 93.4225ZM39.8069 91.6195C39.8711 91.1219 40.1707 90.7366 40.7378 90.7366C41.2836 90.7366 41.6153 91.0951 41.6153 91.6195H39.8069Z" fill="#ECECFF"/>
<rect opacity="0.2" x="22.376" y="104.368" width="128.744" height="5" rx="2.5" fill="#ECECFF"/>
<rect opacity="0.2" x="22.376" y="113.368" width="128.744" height="5" rx="2.5" fill="#ECECFF"/>
<rect opacity="0.2" x="22.376" y="122.368" width="93.632" height="5" rx="2.5" fill="#ECECFF"/>
<rect x="8.62274" y="62.1266" width="156.251" height="80.0073" rx="8.37726" stroke="#FAFAFB" stroke-width="0.754513"/>
</svg>
