<svg width="375" height="254" viewBox="0 0 375 254" fill="none" xmlns="http://www.w3.org/2000/svg">
<path d="M258 66H278C286.837 66 294 73.1634 294 82V102" stroke="#FAFAFB" stroke-linecap="round" stroke-dasharray="2 2"/>
<path d="M105 215L85 215C76.1634 215 69 207.837 69 199L69 179" stroke="#FAFAFB" stroke-linecap="round" stroke-dasharray="2 2"/>
<rect x="130.127" y="73.6227" width="156.251" height="80.0073" rx="8.37726" fill="#7857ED"/>
<path d="M146.1 95.5026C147.324 95.5026 148.047 94.8873 148.047 93.9376C148.047 93.2287 147.632 92.6067 146.455 92.6067H145.86C145.291 92.6067 145.084 92.3593 145.084 92.0249C145.084 91.5768 145.452 91.3092 146.067 91.3092C146.716 91.3092 147.05 91.6169 147.077 92.2322H147.98C147.953 91.2424 147.338 90.5936 146.074 90.5936C144.87 90.5936 144.174 91.1822 144.174 92.0717C144.174 92.8207 144.663 93.3491 145.699 93.3491H146.294C146.923 93.3491 147.124 93.63 147.124 93.9844C147.124 94.4793 146.742 94.787 146.114 94.787C145.445 94.787 145.057 94.4392 145.03 93.7704H144.107C144.141 94.8405 144.83 95.5026 146.1 95.5026ZM150.314 95.5026C151.224 95.5026 151.866 94.9943 152.027 94.2586H151.157C151.043 94.6131 150.736 94.8338 150.328 94.8338C149.766 94.8338 149.412 94.4192 149.385 93.7905H152.073V93.4093C152.073 92.2255 151.318 91.5968 150.308 91.5968C149.244 91.5968 148.489 92.3258 148.489 93.5497C148.489 94.7669 149.224 95.5026 150.314 95.5026ZM149.391 93.1819C149.445 92.6669 149.746 92.2656 150.328 92.2656C150.903 92.2656 151.224 92.6468 151.224 93.1819H149.391ZM152.648 95.3889H153.491V93.2822C153.491 92.5465 153.905 92.2723 154.327 92.2723C154.741 92.2723 155.022 92.5398 155.022 93.1819V95.3889H155.865V93.0816C155.865 92.1051 155.37 91.5968 154.621 91.5968C154.113 91.5968 153.712 91.8376 153.491 92.2723H153.477V91.7105H152.648V95.3889ZM156.586 95.3889H157.429V91.7105H156.586V95.3889ZM156.573 91.1287H157.436V90.3127H156.573V91.1287ZM159.877 95.5026C160.914 95.5026 161.743 94.8071 161.743 93.5497C161.743 92.2924 160.914 91.5968 159.877 91.5968C158.84 91.5968 158.011 92.2924 158.011 93.5497C158.011 94.8071 158.84 95.5026 159.877 95.5026ZM158.914 93.5497C158.914 92.7003 159.295 92.2656 159.877 92.2656C160.459 92.2656 160.84 92.7003 160.84 93.5497C160.84 94.3991 160.459 94.8338 159.877 94.8338C159.295 94.8338 158.914 94.3991 158.914 93.5497ZM162.327 95.3889H163.17V93.2755C163.17 92.6736 163.404 92.3994 163.913 92.3994H164.421V91.7105H164.066C163.578 91.7105 163.344 91.9245 163.17 92.2924H163.157V91.7105H162.327V95.3889ZM166.331 95.3889H167.214V93.6233H168.438C169.374 93.6233 170.05 93.1016 170.05 92.172C170.05 91.249 169.374 90.7073 168.438 90.7073H166.331V95.3889ZM167.214 92.9077V91.4229H168.251C168.799 91.4229 169.14 91.7172 169.14 92.172C169.14 92.6268 168.799 92.9077 168.251 92.9077H167.214ZM170.589 95.3889H171.432V93.2755C171.432 92.6736 171.666 92.3994 172.175 92.3994H172.683V91.7105H172.328C171.84 91.7105 171.606 91.9245 171.432 92.2924H171.419V91.7105H170.589V95.3889ZM174.664 95.5026C175.701 95.5026 176.53 94.8071 176.53 93.5497C176.53 92.2924 175.701 91.5968 174.664 91.5968C173.627 91.5968 172.798 92.2924 172.798 93.5497C172.798 94.8071 173.627 95.5026 174.664 95.5026ZM173.701 93.5497C173.701 92.7003 174.082 92.2656 174.664 92.2656C175.246 92.2656 175.627 92.7003 175.627 93.5497C175.627 94.3991 175.246 94.8338 174.664 94.8338C174.082 94.8338 173.701 94.3991 173.701 93.5497ZM178.584 95.5026C179.146 95.5026 179.594 95.215 179.814 94.7469H179.828C179.821 94.8873 179.821 95.0077 179.821 95.1415V95.3889H180.657V90.1656H179.814V91.978C179.814 92.1118 179.814 92.2255 179.828 92.3526H179.814C179.594 91.8844 179.146 91.5968 178.584 91.5968C177.728 91.5968 176.945 92.2723 176.945 93.5497C176.945 94.8271 177.728 95.5026 178.584 95.5026ZM177.848 93.5497C177.848 92.7739 178.216 92.2656 178.838 92.2656C179.453 92.2656 179.821 92.7739 179.821 93.5497C179.821 94.3255 179.453 94.8338 178.838 94.8338C178.216 94.8338 177.848 94.3255 177.848 93.5497ZM182.623 95.5026C183.111 95.5026 183.512 95.2819 183.733 94.8271H183.746V95.3889H184.575V91.7105H183.733V93.8172C183.733 94.5529 183.332 94.8271 182.903 94.8271C182.489 94.8271 182.208 94.573 182.208 93.9176V91.7105H181.365V94.0179C181.365 94.9943 181.86 95.5026 182.623 95.5026ZM187.014 95.5026C188.038 95.5026 188.633 94.8472 188.74 94.058H187.871C187.824 94.4058 187.556 94.8338 187.014 94.8338C186.433 94.8338 186.051 94.3456 186.051 93.5497C186.051 92.8007 186.379 92.2656 187.014 92.2656C187.57 92.2656 187.837 92.6602 187.871 93.115H188.74C188.66 92.2522 188.071 91.5968 187.014 91.5968C185.844 91.5968 185.149 92.3659 185.149 93.5497C185.149 94.7335 185.898 95.5026 187.014 95.5026ZM190.634 95.3889H191.61V94.7001H190.921C190.641 94.7001 190.48 94.5797 190.48 94.2653V92.3994H191.59V91.7105H190.48V90.7073H189.631V91.7105H188.922V92.3994H189.631V94.3924C189.631 95.0612 189.978 95.3889 190.634 95.3889ZM193.56 95.3889H195.386C196.697 95.3889 197.673 94.5462 197.673 93.0481C197.673 91.55 196.697 90.7073 195.386 90.7073H193.56V95.3889ZM194.443 94.6733V91.4229H195.306C196.169 91.4229 196.737 91.9647 196.737 93.0481C196.737 94.1249 196.169 94.6733 195.306 94.6733H194.443ZM199.919 95.5026C200.829 95.5026 201.471 94.9943 201.631 94.2586H200.762C200.648 94.6131 200.341 94.8338 199.933 94.8338C199.371 94.8338 199.016 94.4192 198.99 93.7905H201.678V93.4093C201.678 92.2255 200.922 91.5968 199.913 91.5968C198.849 91.5968 198.093 92.3258 198.093 93.5497C198.093 94.7669 198.829 95.5026 199.919 95.5026ZM198.996 93.1819C199.05 92.6669 199.351 92.2656 199.933 92.2656C200.508 92.2656 200.829 92.6468 200.829 93.1819H198.996ZM203.677 95.5026C204.7 95.5026 205.276 94.9876 205.276 94.2586C205.276 93.6567 204.874 93.1618 203.992 93.1618H203.55C203.209 93.1618 203.002 93.0281 203.002 92.7538C203.002 92.4529 203.249 92.2656 203.65 92.2656C204.099 92.2656 204.326 92.4863 204.346 92.901H205.209C205.182 92.1185 204.64 91.5968 203.65 91.5968C202.687 91.5968 202.119 92.085 202.119 92.7873C202.119 93.4093 202.567 93.8306 203.336 93.8306H203.737C204.192 93.8306 204.373 94.0045 204.373 94.2921C204.373 94.6198 204.125 94.8338 203.671 94.8338C203.236 94.8338 202.942 94.6332 202.921 94.1717H202.052C202.079 94.9809 202.647 95.5026 203.677 95.5026ZM205.852 95.3889H206.694V91.7105H205.852V95.3889ZM205.838 91.1287H206.701V90.3127H205.838V91.1287ZM209.162 96.8469C210.36 96.8469 210.995 96.1447 210.995 95.0545V91.7105H210.146V91.978C210.146 92.1118 210.146 92.2255 210.159 92.3526H210.146C209.925 91.8844 209.477 91.5968 208.915 91.5968C208.059 91.5968 207.276 92.2723 207.276 93.5497C207.276 94.8271 208.059 95.5026 208.915 95.5026C209.477 95.5026 209.925 95.215 210.146 94.7469H210.159C210.146 94.8873 210.146 94.9676 210.146 95.0946V95.108C210.146 95.8236 209.718 96.1781 209.176 96.1781C208.795 96.1781 208.52 96.0042 208.447 95.7969H207.551C207.617 96.3319 208.153 96.8469 209.162 96.8469ZM208.179 93.5497C208.179 92.7739 208.547 92.2656 209.169 92.2656C209.784 92.2656 210.152 92.7739 210.152 93.5497C210.152 94.3255 209.784 94.8338 209.169 94.8338C208.547 94.8338 208.179 94.3255 208.179 93.5497ZM211.815 95.3889H212.657V93.2822C212.657 92.5465 213.072 92.2723 213.493 92.2723C213.908 92.2723 214.189 92.5398 214.189 93.1819V95.3889H215.032V93.0816C215.032 92.1051 214.537 91.5968 213.788 91.5968C213.279 91.5968 212.878 91.8376 212.657 92.2723H212.644V91.7105H211.815V95.3889ZM217.43 95.5026C218.339 95.5026 218.981 94.9943 219.142 94.2586H218.272C218.159 94.6131 217.851 94.8338 217.443 94.8338C216.881 94.8338 216.527 94.4192 216.5 93.7905H219.189V93.4093C219.189 92.2255 218.433 91.5968 217.423 91.5968C216.359 91.5968 215.604 92.3258 215.604 93.5497C215.604 94.7669 216.339 95.5026 217.43 95.5026ZM216.507 93.1819C216.56 92.6669 216.861 92.2656 217.443 92.2656C218.018 92.2656 218.339 92.6468 218.339 93.1819H216.507ZM219.763 95.3889H220.606V93.2755C220.606 92.6736 220.84 92.3994 221.348 92.3994H221.857V91.7105H221.502C221.014 91.7105 220.78 91.9245 220.606 92.2924H220.593V91.7105H219.763V95.3889Z" fill="#ECECFF"/>
<rect x="247.725" y="88.3889" width="24.8988" height="10.4494" rx="5.2247" fill="#FAFAFB"/>
<path d="M253.246 95.1135H254.023L254.267 94.4078H255.478L255.716 95.1135H256.512L255.254 91.7758H254.505L253.246 95.1135ZM254.462 93.8309L254.567 93.5257C254.715 93.087 254.805 92.7771 254.867 92.5339H254.872C254.934 92.7771 255.025 93.087 255.163 93.4923L255.277 93.8309H254.462ZM256.794 96.0672H257.504V94.9991C257.504 94.899 257.504 94.8131 257.495 94.7178H257.504C257.657 95.0182 257.948 95.1994 258.32 95.1994C258.925 95.1994 259.45 94.7178 259.45 93.8023C259.45 92.8868 258.925 92.4052 258.32 92.4052C257.948 92.4052 257.657 92.5864 257.504 92.8868H257.495C257.504 92.7962 257.504 92.7199 257.504 92.6341V92.491H256.794V96.0672ZM257.5 93.8023C257.5 93.2778 257.705 92.944 258.096 92.944C258.482 92.944 258.692 93.2778 258.692 93.8023C258.692 94.3268 258.482 94.6605 258.096 94.6605C257.705 94.6605 257.5 94.3268 257.5 93.8023ZM259.811 96.0672H260.522V94.9991C260.522 94.899 260.522 94.8131 260.512 94.7178H260.522C260.674 95.0182 260.965 95.1994 261.337 95.1994C261.943 95.1994 262.467 94.7178 262.467 93.8023C262.467 92.8868 261.943 92.4052 261.337 92.4052C260.965 92.4052 260.674 92.5864 260.522 92.8868H260.512C260.522 92.7962 260.522 92.7199 260.522 92.6341V92.491H259.811V96.0672ZM260.517 93.8023C260.517 93.2778 260.722 92.944 261.113 92.944C261.499 92.944 261.709 93.2778 261.709 93.8023C261.709 94.3268 261.499 94.6605 261.113 94.6605C260.722 94.6605 260.517 94.3268 260.517 93.8023ZM262.829 95.1135H263.539V91.3895H262.829V95.1135ZM263.774 96.0672H264.861C265.004 96.0672 265.104 96.0004 265.156 95.8669L266.515 92.491H265.757L265.156 94.0884H265.147L264.541 92.491H263.774L264.775 94.9705L264.541 95.5093H263.774V96.0672Z" fill="#7857ED"/>
<path d="M144.292 104.838H144.79V103.292H145.458C146.106 103.292 146.304 103.469 146.496 104.186L146.673 104.838H147.187L146.973 104.063C146.844 103.592 146.678 103.249 146.229 103.073V103.062C146.769 102.955 147.074 102.602 147.074 102.12C147.074 101.51 146.587 101.093 145.731 101.093H144.292V104.838ZM144.79 102.853V101.537H145.726C146.261 101.537 146.555 101.767 146.555 102.163C146.555 102.613 146.181 102.853 145.485 102.853H144.79ZM148.892 104.919C149.593 104.919 150.128 104.512 150.251 103.934H149.732C149.614 104.282 149.298 104.501 148.892 104.501C148.33 104.501 147.993 104.079 147.956 103.528H150.278V103.212C150.278 102.34 149.673 101.815 148.881 101.815C148.036 101.815 147.447 102.42 147.447 103.367C147.447 104.303 148.025 104.919 148.892 104.919ZM147.966 103.116C148.03 102.618 148.33 102.233 148.897 102.233C149.443 102.233 149.775 102.591 149.775 103.116H147.966ZM150.818 104.838H151.299V103.174C151.299 102.564 151.647 102.243 152.054 102.243C152.407 102.243 152.658 102.479 152.658 103.025V104.838H153.14V103.169C153.14 102.559 153.488 102.243 153.894 102.243C154.247 102.243 154.499 102.479 154.499 103.025V104.838H154.98V102.976C154.98 102.27 154.622 101.815 154.023 101.815C153.546 101.815 153.236 102.099 153.086 102.495H153.076C152.953 102.072 152.637 101.815 152.198 101.815C151.722 101.815 151.438 102.12 151.299 102.415H151.289V101.896H150.818V104.838ZM156.991 104.919C157.804 104.919 158.452 104.357 158.452 103.367C158.452 102.377 157.804 101.815 156.991 101.815C156.178 101.815 155.53 102.377 155.53 103.367C155.53 104.357 156.178 104.919 156.991 104.919ZM156.033 103.367C156.033 102.618 156.456 102.233 156.991 102.233C157.526 102.233 157.949 102.618 157.949 103.367C157.949 104.116 157.526 104.501 156.991 104.501C156.456 104.501 156.033 104.116 156.033 103.367ZM159.971 104.838H160.629V104.41H160.025C159.8 104.41 159.671 104.314 159.671 104.063V102.324H160.602V101.896H159.671V101.093H159.19V101.896H158.601V102.324H159.19V104.063C159.19 104.582 159.457 104.838 159.971 104.838ZM162.236 104.919C162.937 104.919 163.472 104.512 163.595 103.934H163.076C162.959 104.282 162.643 104.501 162.236 104.501C161.675 104.501 161.338 104.079 161.3 103.528H163.622V103.212C163.622 102.34 163.018 101.815 162.226 101.815C161.38 101.815 160.792 102.42 160.792 103.367C160.792 104.303 161.37 104.919 162.236 104.919ZM161.311 103.116C161.375 102.618 161.675 102.233 162.242 102.233C162.788 102.233 163.119 102.591 163.119 103.116H161.311Z" fill="#ECECFF"/>
<rect opacity="0.2" x="143.88" y="115.864" width="128.744" height="5" rx="2.5" fill="#ECECFF"/>
<rect opacity="0.2" x="143.88" y="124.864" width="128.744" height="5" rx="2.5" fill="#ECECFF"/>
<rect opacity="0.2" x="143.88" y="133.864" width="93.632" height="5" rx="2.5" fill="#ECECFF"/>
<rect x="130.127" y="73.6227" width="156.251" height="80.0073" rx="8.37726" stroke="#FAFAFB" stroke-width="0.754513"/>
<rect x="103.375" y="100.375" width="156.251" height="80.0073" rx="8.37726" fill="#BBED55"/>
<path d="M118.747 122.141H119.629V118.175H121.154V117.459H117.215V118.175H118.747V122.141ZM123.208 121.452H123.221V121.592C123.221 121.94 123.442 122.141 123.843 122.141H124.418V121.452H124.278C124.097 121.452 124.03 121.385 124.03 121.205V119.626C124.03 118.884 123.589 118.349 122.472 118.349C121.369 118.349 120.854 118.864 120.8 119.653H121.683C121.71 119.245 122.011 119.018 122.485 119.018C122.88 119.018 123.188 119.178 123.188 119.512C123.188 119.767 123.02 119.914 122.653 119.914H122.057C121.328 119.914 120.66 120.235 120.66 121.077C120.66 121.847 121.215 122.255 121.93 122.255C122.499 122.255 122.974 122 123.208 121.452ZM121.562 121.044C121.562 120.756 121.75 120.536 122.191 120.522L122.465 120.509C122.847 120.496 123.061 120.382 123.174 120.155H123.188V120.496C123.188 121.258 122.693 121.572 122.191 121.572C121.75 121.572 121.562 121.332 121.562 121.044ZM124.91 122.141H125.753V116.918H124.91V122.141ZM128.16 122.255C129.07 122.255 129.712 121.746 129.873 121.011H129.003C128.889 121.365 128.582 121.586 128.174 121.586C127.612 121.586 127.258 121.171 127.231 120.542H129.919V120.161C129.919 118.977 129.164 118.349 128.154 118.349C127.09 118.349 126.335 119.078 126.335 120.302C126.335 121.519 127.07 122.255 128.16 122.255ZM127.237 119.934C127.291 119.419 127.592 119.018 128.174 119.018C128.749 119.018 129.07 119.399 129.07 119.934H127.237ZM130.494 122.141H131.337V120.034C131.337 119.298 131.751 119.024 132.173 119.024C132.587 119.024 132.868 119.292 132.868 119.934V122.141H133.711V119.834C133.711 118.857 133.216 118.349 132.467 118.349C131.959 118.349 131.558 118.59 131.337 119.024H131.323V118.462H130.494V122.141ZM135.758 122.141H136.735V121.452H136.046C135.765 121.452 135.604 121.332 135.604 121.017V119.151H136.715V118.462H135.604V117.459H134.755V118.462H134.046V119.151H134.755V121.144C134.755 121.813 135.103 122.141 135.758 122.141ZM138.685 122.141H139.567V120.141H141.567V122.141H142.45V117.459H141.567V119.426H139.567V117.459H138.685V122.141ZM144.921 122.255C145.957 122.255 146.787 121.559 146.787 120.302C146.787 119.044 145.957 118.349 144.921 118.349C143.884 118.349 143.055 119.044 143.055 120.302C143.055 121.559 143.884 122.255 144.921 122.255ZM143.957 120.302C143.957 119.452 144.339 119.018 144.921 119.018C145.502 119.018 145.884 119.452 145.884 120.302C145.884 121.151 145.502 121.586 144.921 121.586C144.339 121.586 143.957 121.151 143.957 120.302ZM148.614 122.255C149.103 122.255 149.504 122.034 149.725 121.579H149.738V122.141H150.567V118.462H149.725V120.569C149.725 121.305 149.323 121.579 148.895 121.579C148.481 121.579 148.2 121.325 148.2 120.67V118.462H147.357V120.77C147.357 121.746 147.852 122.255 148.614 122.255ZM152.747 122.255C153.77 122.255 154.345 121.74 154.345 121.011C154.345 120.409 153.944 119.914 153.061 119.914H152.619C152.278 119.914 152.071 119.78 152.071 119.506C152.071 119.205 152.318 119.018 152.72 119.018C153.168 119.018 153.395 119.238 153.415 119.653H154.278C154.251 118.87 153.71 118.349 152.72 118.349C151.757 118.349 151.188 118.837 151.188 119.539C151.188 120.161 151.636 120.583 152.405 120.583H152.807C153.261 120.583 153.442 120.756 153.442 121.044C153.442 121.372 153.195 121.586 152.74 121.586C152.305 121.586 152.011 121.385 151.991 120.924H151.121C151.148 121.733 151.717 122.255 152.747 122.255ZM156.545 122.255C157.455 122.255 158.097 121.746 158.257 121.011H157.388C157.274 121.365 156.967 121.586 156.559 121.586C155.997 121.586 155.642 121.171 155.616 120.542H158.304V120.161C158.304 118.977 157.548 118.349 156.539 118.349C155.475 118.349 154.719 119.078 154.719 120.302C154.719 121.519 155.455 122.255 156.545 122.255ZM155.622 119.934C155.676 119.419 155.977 119.018 156.559 119.018C157.134 119.018 157.455 119.399 157.455 119.934H155.622Z" fill="#252F11"/>
<rect x="220.973" y="115.141" width="24.8988" height="10.4494" rx="5.2247" fill="#252F11"/>
<path d="M226.494 121.865H227.271L227.515 121.16H228.726L228.964 121.865H229.76L228.502 118.528H227.753L226.494 121.865ZM227.71 120.583L227.815 120.278C227.963 119.839 228.053 119.529 228.115 119.286H228.12C228.182 119.529 228.273 119.839 228.411 120.244L228.525 120.583H227.71ZM230.042 122.819H230.752V121.751C230.752 121.651 230.752 121.565 230.743 121.47H230.752C230.905 121.77 231.196 121.951 231.568 121.951C232.173 121.951 232.698 121.47 232.698 120.554C232.698 119.639 232.173 119.157 231.568 119.157C231.196 119.157 230.905 119.338 230.752 119.639H230.743C230.752 119.548 230.752 119.472 230.752 119.386V119.243H230.042V122.819ZM230.748 120.554C230.748 120.03 230.953 119.696 231.344 119.696C231.73 119.696 231.94 120.03 231.94 120.554C231.94 121.079 231.73 121.412 231.344 121.412C230.953 121.412 230.748 121.079 230.748 120.554ZM233.059 122.819H233.77V121.751C233.77 121.651 233.77 121.565 233.76 121.47H233.77C233.922 121.77 234.213 121.951 234.585 121.951C235.191 121.951 235.715 121.47 235.715 120.554C235.715 119.639 235.191 119.157 234.585 119.157C234.213 119.157 233.922 119.338 233.77 119.639H233.76C233.77 119.548 233.77 119.472 233.77 119.386V119.243H233.059V122.819ZM233.765 120.554C233.765 120.03 233.97 119.696 234.361 119.696C234.747 119.696 234.957 120.03 234.957 120.554C234.957 121.079 234.747 121.412 234.361 121.412C233.97 121.412 233.765 121.079 233.765 120.554ZM236.077 121.865H236.787V118.142H236.077V121.865ZM237.022 122.819H238.109C238.252 122.819 238.352 122.752 238.404 122.619L239.763 119.243H239.005L238.404 120.84H238.395L237.789 119.243H237.022L238.023 121.722L237.789 122.261H237.022V122.819Z" fill="#BBED55"/>
<path d="M117.54 131.59H118.038V130.044H118.706C119.354 130.044 119.552 130.221 119.744 130.938L119.921 131.59H120.435L120.221 130.815C120.092 130.344 119.926 130.001 119.477 129.825V129.814C120.017 129.707 120.322 129.354 120.322 128.872C120.322 128.262 119.835 127.845 118.979 127.845H117.54V131.59ZM118.038 129.605V128.289H118.974C119.509 128.289 119.803 128.519 119.803 128.915C119.803 129.365 119.429 129.605 118.733 129.605H118.038ZM122.14 131.671C122.841 131.671 123.376 131.264 123.499 130.686H122.98C122.862 131.034 122.546 131.253 122.14 131.253C121.578 131.253 121.241 130.831 121.204 130.279H123.526V129.964C123.526 129.092 122.921 128.567 122.129 128.567C121.284 128.567 120.695 129.172 120.695 130.119C120.695 131.055 121.273 131.671 122.14 131.671ZM121.214 129.868C121.278 129.37 121.578 128.985 122.145 128.985C122.691 128.985 123.023 129.343 123.023 129.868H121.214ZM124.066 131.59H124.547V129.926C124.547 129.316 124.895 128.995 125.302 128.995C125.655 128.995 125.906 129.231 125.906 129.777V131.59H126.388V129.921C126.388 129.311 126.736 128.995 127.142 128.995C127.495 128.995 127.747 129.231 127.747 129.777V131.59H128.228V129.728C128.228 129.022 127.87 128.567 127.271 128.567C126.794 128.567 126.484 128.851 126.334 129.247H126.324C126.201 128.824 125.885 128.567 125.446 128.567C124.97 128.567 124.686 128.872 124.547 129.167H124.537V128.648H124.066V131.59ZM130.239 131.671C131.052 131.671 131.7 131.109 131.7 130.119C131.7 129.129 131.052 128.567 130.239 128.567C129.426 128.567 128.778 129.129 128.778 130.119C128.778 131.109 129.426 131.671 130.239 131.671ZM129.281 130.119C129.281 129.37 129.704 128.985 130.239 128.985C130.774 128.985 131.197 129.37 131.197 130.119C131.197 130.868 130.774 131.253 130.239 131.253C129.704 131.253 129.281 130.868 129.281 130.119ZM133.219 131.59H133.877V131.162H133.273C133.048 131.162 132.919 131.066 132.919 130.815V129.076H133.85V128.648H132.919V127.845H132.438V128.648H131.849V129.076H132.438V130.815C132.438 131.334 132.705 131.59 133.219 131.59ZM135.484 131.671C136.185 131.671 136.72 131.264 136.843 130.686H136.324C136.207 131.034 135.891 131.253 135.484 131.253C134.923 131.253 134.586 130.831 134.548 130.279H136.87V129.964C136.87 129.092 136.266 128.567 135.474 128.567C134.628 128.567 134.04 129.172 134.04 130.119C134.04 131.055 134.618 131.671 135.484 131.671ZM134.559 129.868C134.623 129.37 134.923 128.985 135.49 128.985C136.036 128.985 136.367 129.343 136.367 129.868H134.559Z" fill="#ECECFF"/>
<rect opacity="0.2" x="117.128" y="142.616" width="128.744" height="5" rx="2.5" fill="#ECECFF"/>
<rect opacity="0.2" x="117.128" y="151.616" width="128.744" height="5" rx="2.5" fill="#ECECFF"/>
<rect opacity="0.2" x="117.128" y="160.616" width="93.632" height="5" rx="2.5" fill="#ECECFF"/>
<rect x="103.375" y="100.375" width="156.251" height="80.0073" rx="8.37726" stroke="#7857ED" stroke-width="0.754513"/>
<rect x="76.6227" y="127.127" width="156.251" height="80.0073" rx="8.37726" fill="#7857ED"/>
<path d="M90.804 148.893H93.0111C94.0143 148.893 94.6363 148.298 94.6363 147.528C94.6363 146.866 94.1681 146.405 93.3589 146.378V146.365C93.9608 146.298 94.3086 145.923 94.3086 145.382C94.3086 144.679 93.7401 144.211 92.8907 144.211H90.804V148.893ZM91.6869 148.177V146.793H92.8506C93.4257 146.793 93.7267 147.054 93.7267 147.482C93.7267 147.91 93.4391 148.177 92.8506 148.177H91.6869ZM91.6869 146.104V144.927H92.7034C93.1649 144.927 93.4057 145.161 93.4057 145.515C93.4057 145.87 93.1582 146.104 92.7034 146.104H91.6869ZM96.8823 149.007C97.7919 149.007 98.4339 148.498 98.5944 147.763H97.725C97.6113 148.117 97.3036 148.338 96.8957 148.338C96.3339 148.338 95.9794 147.923 95.9527 147.294H98.6412V146.913C98.6412 145.729 97.8855 145.101 96.8756 145.101C95.8122 145.101 95.0565 145.83 95.0565 147.054C95.0565 148.271 95.7921 149.007 96.8823 149.007ZM95.9593 146.686C96.0128 146.171 96.3138 145.77 96.8957 145.77C97.4708 145.77 97.7919 146.151 97.7919 146.686H95.9593ZM100.522 148.893H101.499V148.204H100.81C100.529 148.204 100.368 148.084 100.368 147.769V145.903H101.479V145.214H100.368V144.211H99.519V145.214H98.81V145.903H99.519V147.896C99.519 148.565 99.8668 148.893 100.522 148.893ZM104.332 148.204H104.346V148.344C104.346 148.692 104.566 148.893 104.968 148.893H105.543V148.204H105.402C105.222 148.204 105.155 148.137 105.155 147.957V146.378C105.155 145.636 104.714 145.101 103.597 145.101C102.493 145.101 101.978 145.616 101.925 146.405H102.808C102.834 145.997 103.135 145.77 103.61 145.77C104.005 145.77 104.312 145.93 104.312 146.264C104.312 146.519 104.145 146.666 103.777 146.666H103.182C102.453 146.666 101.784 146.987 101.784 147.829C101.784 148.599 102.339 149.007 103.055 149.007C103.623 149.007 104.098 148.752 104.332 148.204ZM102.687 147.796C102.687 147.508 102.874 147.288 103.316 147.274L103.59 147.261C103.971 147.248 104.185 147.134 104.299 146.906H104.312V147.248C104.312 148.01 103.817 148.324 103.316 148.324C102.874 148.324 102.687 148.084 102.687 147.796ZM108.843 148.893H109.819V148.204H109.131C108.85 148.204 108.689 148.084 108.689 147.769V145.903H109.799V145.214H108.689V144.211H107.84V145.214H107.131V145.903H107.84V147.896C107.84 148.565 108.188 148.893 108.843 148.893ZM111.845 149.007C112.755 149.007 113.397 148.498 113.558 147.763H112.688C112.574 148.117 112.267 148.338 111.859 148.338C111.297 148.338 110.942 147.923 110.916 147.294H113.604V146.913C113.604 145.729 112.849 145.101 111.839 145.101C110.775 145.101 110.02 145.83 110.02 147.054C110.02 148.271 110.755 149.007 111.845 149.007ZM110.922 146.686C110.976 146.171 111.277 145.77 111.859 145.77C112.434 145.77 112.755 146.151 112.755 146.686H110.922ZM115.603 149.007C116.627 149.007 117.202 148.492 117.202 147.763C117.202 147.161 116.8 146.666 115.918 146.666H115.476C115.135 146.666 114.928 146.532 114.928 146.258C114.928 145.957 115.175 145.77 115.577 145.77C116.025 145.77 116.252 145.99 116.272 146.405H117.135C117.108 145.622 116.566 145.101 115.577 145.101C114.613 145.101 114.045 145.589 114.045 146.291C114.045 146.913 114.493 147.335 115.262 147.335H115.663C116.118 147.335 116.299 147.508 116.299 147.796C116.299 148.124 116.051 148.338 115.597 148.338C115.162 148.338 114.868 148.137 114.848 147.676H113.978C114.005 148.485 114.573 149.007 115.603 149.007ZM119.143 148.893H120.119V148.204H119.43C119.149 148.204 118.989 148.084 118.989 147.769V145.903H120.099V145.214H118.989V144.211H118.14V145.214H117.431V145.903H118.14V147.896C118.14 148.565 118.487 148.893 119.143 148.893ZM122.145 149.007C123.055 149.007 123.697 148.498 123.857 147.763H122.988C122.874 148.117 122.567 148.338 122.159 148.338C121.597 148.338 121.242 147.923 121.216 147.294H123.904V146.913C123.904 145.729 123.148 145.101 122.138 145.101C121.075 145.101 120.319 145.83 120.319 147.054C120.319 148.271 121.055 149.007 122.145 149.007ZM121.222 146.686C121.276 146.171 121.577 145.77 122.159 145.77C122.734 145.77 123.055 146.151 123.055 146.686H121.222ZM124.479 148.893H125.322V146.779C125.322 146.177 125.556 145.903 126.064 145.903H126.572V145.214H126.218C125.73 145.214 125.495 145.428 125.322 145.796H125.308V145.214H124.479V148.893Z" fill="#ECECFF"/>
<rect x="194.221" y="141.893" width="24.8988" height="10.4494" rx="5.2247" fill="#FAFAFB"/>
<path d="M199.742 148.617H200.519L200.763 147.912H201.974L202.212 148.617H203.008L201.75 145.28H201.001L199.742 148.617ZM200.958 147.335L201.063 147.03C201.211 146.591 201.301 146.281 201.363 146.038H201.368C201.43 146.281 201.521 146.591 201.659 146.996L201.773 147.335H200.958ZM203.29 149.571H204V148.503C204 148.403 204 148.317 203.991 148.222H204C204.153 148.522 204.444 148.703 204.816 148.703C205.421 148.703 205.946 148.222 205.946 147.306C205.946 146.391 205.421 145.909 204.816 145.909C204.444 145.909 204.153 146.09 204 146.391H203.991C204 146.3 204 146.224 204 146.138V145.995H203.29V149.571ZM203.996 147.306C203.996 146.782 204.201 146.448 204.592 146.448C204.978 146.448 205.188 146.782 205.188 147.306C205.188 147.831 204.978 148.164 204.592 148.164C204.201 148.164 203.996 147.831 203.996 147.306ZM206.307 149.571H207.018V148.503C207.018 148.403 207.018 148.317 207.008 148.222H207.018C207.17 148.522 207.461 148.703 207.833 148.703C208.439 148.703 208.963 148.222 208.963 147.306C208.963 146.391 208.439 145.909 207.833 145.909C207.461 145.909 207.17 146.09 207.018 146.391H207.008C207.018 146.3 207.018 146.224 207.018 146.138V145.995H206.307V149.571ZM207.013 147.306C207.013 146.782 207.218 146.448 207.609 146.448C207.995 146.448 208.205 146.782 208.205 147.306C208.205 147.831 207.995 148.164 207.609 148.164C207.218 148.164 207.013 147.831 207.013 147.306ZM209.325 148.617H210.035V144.893H209.325V148.617ZM210.27 149.571H211.357C211.5 149.571 211.6 149.504 211.652 149.371L213.011 145.995H212.253L211.652 147.592H211.643L211.037 145.995H210.27L211.271 148.474L211.037 149.013H210.27V149.571Z" fill="#7857ED"/>
<path d="M90.788 158.342H91.2856V156.796H91.9544C92.6018 156.796 92.7997 156.973 92.9924 157.69L93.1689 158.342H93.6826L93.4685 157.566C93.3401 157.096 93.1743 156.753 92.7248 156.577V156.566C93.2652 156.459 93.5702 156.106 93.5702 155.624C93.5702 155.014 93.0833 154.597 92.2272 154.597H90.788V158.342ZM91.2856 156.357V155.041H92.2219C92.7569 155.041 93.0512 155.271 93.0512 155.667C93.0512 156.117 92.6767 156.357 91.9811 156.357H91.2856ZM95.3878 158.423C96.0887 158.423 96.6238 158.016 96.7468 157.438H96.2278C96.1101 157.786 95.7945 158.005 95.3878 158.005C94.826 158.005 94.489 157.583 94.4515 157.031H96.7736V156.716C96.7736 155.844 96.169 155.319 95.3771 155.319C94.5318 155.319 93.9432 155.924 93.9432 156.871C93.9432 157.807 94.5211 158.423 95.3878 158.423ZM94.4622 156.619C94.5264 156.122 94.826 155.737 95.3932 155.737C95.9389 155.737 96.2706 156.095 96.2706 156.619H94.4622ZM97.3138 158.342H97.7953V156.678C97.7953 156.068 98.1431 155.747 98.5497 155.747C98.9028 155.747 99.1543 155.983 99.1543 156.528V158.342H99.6358V156.673C99.6358 156.063 99.9836 155.747 100.39 155.747C100.743 155.747 100.995 155.983 100.995 156.528V158.342H101.476V156.48C101.476 155.774 101.118 155.319 100.519 155.319C100.042 155.319 99.7321 155.603 99.5823 155.999H99.5716C99.4486 155.576 99.1329 155.319 98.6942 155.319C98.218 155.319 97.9344 155.624 97.7953 155.919H97.7846V155.4H97.3138V158.342ZM103.487 158.423C104.3 158.423 104.948 157.861 104.948 156.871C104.948 155.881 104.3 155.319 103.487 155.319C102.674 155.319 102.026 155.881 102.026 156.871C102.026 157.861 102.674 158.423 103.487 158.423ZM102.529 156.871C102.529 156.122 102.952 155.737 103.487 155.737C104.022 155.737 104.445 156.122 104.445 156.871C104.445 157.62 104.022 158.005 103.487 158.005C102.952 158.005 102.529 157.62 102.529 156.871ZM106.467 158.342H107.125V157.914H106.521C106.296 157.914 106.167 157.818 106.167 157.566V155.828H107.098V155.4H106.167V154.597H105.686V155.4H105.097V155.828H105.686V157.566C105.686 158.085 105.953 158.342 106.467 158.342ZM108.732 158.423C109.433 158.423 109.968 158.016 110.091 157.438H109.572C109.455 157.786 109.139 158.005 108.732 158.005C108.171 158.005 107.834 157.583 107.796 157.031H110.118V156.716C110.118 155.844 109.514 155.319 108.722 155.319C107.876 155.319 107.288 155.924 107.288 156.871C107.288 157.807 107.866 158.423 108.732 158.423ZM107.807 156.619C107.871 156.122 108.171 155.737 108.738 155.737C109.284 155.737 109.615 156.095 109.615 156.619H107.807Z" fill="#ECECFF"/>
<rect opacity="0.2" x="90.376" y="169.368" width="128.744" height="5" rx="2.5" fill="#ECECFF"/>
<rect opacity="0.2" x="90.376" y="178.368" width="128.744" height="5" rx="2.5" fill="#ECECFF"/>
<rect opacity="0.2" x="90.376" y="187.368" width="93.632" height="5" rx="2.5" fill="#ECECFF"/>
<rect x="76.6227" y="127.127" width="156.251" height="80.0073" rx="8.37726" stroke="#FAFAFB" stroke-width="0.754513"/>
</svg>
